<svg xmlns="http://www.w3.org/2000/svg" xmlns:xlink="http://www.w3.org/1999/xlink" width="200" zoomAndPan="magnify" viewBox="0 0 150 37.5" height="50" preserveAspectRatio="xMidYMid meet" version="1.0"><defs><g/><clipPath id="d82d429aea"><path d="M 0.988281 15 L 16 15 L 16 17 L 0.988281 17 Z M 0.988281 15 " clip-rule="nonzero"/></clipPath><clipPath id="74b6b2821d"><path d="M 20 21 L 23 21 L 23 37.007812 L 20 37.007812 Z M 20 21 " clip-rule="nonzero"/></clipPath><clipPath id="0153801a00"><path d="M 27 20 L 37.253906 20 L 37.253906 32 L 27 32 Z M 27 20 " clip-rule="nonzero"/></clipPath></defs><path fill="#00c2cb" d="M 27.644531 17.4375 C 25.695312 19.515625 22.445312 19.609375 20.386719 17.640625 C 18.324219 15.675781 18.234375 12.398438 20.183594 10.320312 C 20.539062 9.9375 20.9375 9.625 21.367188 9.378906 C 20.191406 9.617188 19.078125 10.210938 18.195312 11.15625 C 15.914062 13.589844 16.019531 17.425781 18.433594 19.726562 C 20.84375 22.027344 24.648438 21.917969 26.929688 19.484375 C 27.8125 18.542969 28.335938 17.386719 28.507812 16.191406 C 28.289062 16.636719 28 17.058594 27.644531 17.4375 Z M 27.644531 17.4375 " fill-opacity="1" fill-rule="nonzero"/><path fill="#00c2cb" d="M 17.785156 10.59375 C 17.757812 10.605469 17.722656 10.601562 17.699219 10.578125 C 17.152344 10.046875 7.097656 0.242188 6.996094 0.144531 C 6.964844 0.113281 6.964844 0.0664062 6.992188 0.0351562 C 7.023438 0.00390625 7.074219 0 7.105469 0.03125 C 7.207031 0.128906 17.257812 9.933594 17.808594 10.464844 C 17.839844 10.496094 17.839844 10.546875 17.808594 10.578125 C 17.800781 10.585938 17.792969 10.589844 17.785156 10.59375 Z M 17.785156 10.59375 " fill-opacity="1" fill-rule="nonzero"/><path fill="#00c2cb" d="M 18.0625 10.363281 C 18.03125 10.375 17.996094 10.371094 17.972656 10.34375 C 17.464844 9.78125 14.007812 6.25 13.972656 6.210938 C 13.941406 6.183594 13.941406 6.132812 13.972656 6.101562 C 14.003906 6.070312 14.050781 6.070312 14.082031 6.101562 C 14.117188 6.136719 17.578125 9.671875 18.085938 10.238281 C 18.117188 10.269531 18.113281 10.320312 18.082031 10.347656 C 18.074219 10.355469 18.070312 10.359375 18.0625 10.363281 Z M 18.0625 10.363281 " fill-opacity="1" fill-rule="nonzero"/><path fill="#00c2cb" d="M 18.339844 10.132812 C 18.308594 10.144531 18.269531 10.136719 18.246094 10.109375 C 17.960938 9.75 15.359375 6.824219 13.226562 4.433594 C 13.199219 4.402344 13.199219 4.351562 13.234375 4.324219 C 13.265625 4.292969 13.3125 4.296875 13.34375 4.328125 C 15.476562 6.722656 18.082031 9.652344 18.367188 10.011719 C 18.394531 10.046875 18.386719 10.09375 18.355469 10.121094 C 18.347656 10.125 18.34375 10.128906 18.339844 10.132812 Z M 18.339844 10.132812 " fill-opacity="1" fill-rule="nonzero"/><path fill="#00c2cb" d="M 12.851562 3.929688 C 12.820312 3.945312 12.785156 3.9375 12.761719 3.910156 C 12.515625 3.636719 12.28125 3.375 12.070312 3.136719 C 12.039062 3.105469 12.042969 3.054688 12.074219 3.027344 C 12.105469 2.996094 12.15625 3 12.183594 3.03125 C 12.398438 3.273438 12.632812 3.53125 12.875 3.808594 C 12.90625 3.839844 12.902344 3.886719 12.871094 3.917969 C 12.863281 3.921875 12.859375 3.925781 12.851562 3.929688 Z M 12.851562 3.929688 " fill-opacity="1" fill-rule="nonzero"/><path fill="#00c2cb" d="M 11.644531 2.578125 C 11.613281 2.589844 11.574219 2.585938 11.550781 2.558594 C 11.054688 2.003906 10.746094 1.65625 10.746094 1.65625 C 10.714844 1.625 10.71875 1.574219 10.75 1.546875 C 10.78125 1.515625 10.832031 1.519531 10.859375 1.550781 C 10.859375 1.550781 11.171875 1.898438 11.667969 2.453125 C 11.695312 2.484375 11.695312 2.535156 11.664062 2.566406 C 11.65625 2.570312 11.648438 2.574219 11.644531 2.578125 Z M 11.644531 2.578125 " fill-opacity="1" fill-rule="nonzero"/><path fill="#00c2cb" d="M 18.613281 9.898438 C 18.582031 9.917969 18.539062 9.90625 18.519531 9.875 C 18.347656 9.625 17.597656 8.636719 16.285156 6.933594 C 16.261719 6.898438 16.265625 6.847656 16.300781 6.824219 C 16.335938 6.796875 16.382812 6.800781 16.410156 6.835938 C 17.71875 8.542969 18.472656 9.535156 18.644531 9.785156 C 18.671875 9.820312 18.660156 9.867188 18.625 9.894531 C 18.621094 9.894531 18.617188 9.898438 18.613281 9.898438 Z M 18.613281 9.898438 " fill-opacity="1" fill-rule="nonzero"/><path fill="#00c2cb" d="M 15.964844 6.414062 C 15.929688 6.429688 15.890625 6.417969 15.871094 6.390625 C 15.65625 6.113281 15.449219 5.84375 15.253906 5.59375 C 15.226562 5.558594 15.234375 5.507812 15.269531 5.480469 C 15.300781 5.457031 15.351562 5.460938 15.378906 5.496094 C 15.574219 5.75 15.78125 6.019531 15.992188 6.292969 C 16.019531 6.328125 16.011719 6.378906 15.980469 6.402344 C 15.972656 6.40625 15.96875 6.410156 15.964844 6.414062 Z M 15.964844 6.414062 " fill-opacity="1" fill-rule="nonzero"/><path fill="#00c2cb" d="M 14.902344 5.039062 C 14.871094 5.054688 14.832031 5.046875 14.808594 5.015625 C 14.324219 4.386719 13.992188 3.960938 13.992188 3.960938 C 13.964844 3.925781 13.972656 3.875 14.007812 3.847656 C 14.039062 3.820312 14.089844 3.828125 14.117188 3.863281 C 14.117188 3.863281 14.449219 4.292969 14.933594 4.917969 C 14.957031 4.953125 14.953125 5.003906 14.917969 5.03125 C 14.914062 5.03125 14.910156 5.035156 14.902344 5.039062 Z M 14.902344 5.039062 " fill-opacity="1" fill-rule="nonzero"/><path fill="#00c2cb" d="M 18.890625 9.667969 C 18.855469 9.6875 18.8125 9.671875 18.792969 9.636719 C 18.398438 8.980469 16.042969 4.820312 16.019531 4.777344 C 15.996094 4.742188 16.007812 4.695312 16.046875 4.671875 C 16.085938 4.652344 16.132812 4.664062 16.152344 4.703125 C 16.175781 4.742188 18.53125 8.898438 18.925781 9.558594 C 18.945312 9.59375 18.933594 9.644531 18.898438 9.664062 C 18.894531 9.667969 18.894531 9.667969 18.890625 9.667969 Z M 18.890625 9.667969 " fill-opacity="1" fill-rule="nonzero"/><path fill="#00c2cb" d="M 16.695312 12.136719 C 16.671875 12.148438 16.648438 12.148438 16.625 12.136719 C 15.953125 11.773438 3.609375 5.148438 3.484375 5.082031 C 3.445312 5.0625 3.433594 5.011719 3.453125 4.976562 C 3.472656 4.9375 3.519531 4.921875 3.558594 4.941406 C 3.683594 5.007812 16.023438 11.636719 16.699219 11.996094 C 16.734375 12.015625 16.75 12.0625 16.730469 12.101562 C 16.722656 12.117188 16.707031 12.128906 16.695312 12.136719 Z M 16.695312 12.136719 " fill-opacity="1" fill-rule="nonzero"/><path fill="#00c2cb" d="M 16.894531 11.835938 C 16.875 11.847656 16.847656 11.847656 16.824219 11.832031 C 16.179688 11.433594 11.890625 9 11.847656 8.972656 C 11.8125 8.953125 11.796875 8.90625 11.820312 8.867188 C 11.839844 8.832031 11.886719 8.816406 11.925781 8.839844 C 11.96875 8.863281 16.257812 11.296875 16.90625 11.699219 C 16.941406 11.722656 16.953125 11.769531 16.929688 11.808594 C 16.921875 11.820312 16.910156 11.832031 16.894531 11.835938 Z M 16.894531 11.835938 " fill-opacity="1" fill-rule="nonzero"/><path fill="#00c2cb" d="M 17.097656 11.539062 C 17.074219 11.550781 17.042969 11.546875 17.019531 11.53125 C 16.652344 11.265625 13.351562 9.175781 10.648438 7.472656 C 10.609375 7.449219 10.597656 7.402344 10.621094 7.363281 C 10.644531 7.328125 10.691406 7.316406 10.730469 7.339844 C 13.433594 9.046875 16.738281 11.136719 17.109375 11.402344 C 17.144531 11.429688 17.152344 11.476562 17.128906 11.511719 C 17.121094 11.523438 17.109375 11.535156 17.097656 11.539062 Z M 17.097656 11.539062 " fill-opacity="1" fill-rule="nonzero"/><path fill="#00c2cb" d="M 10.128906 7.105469 C 10.105469 7.113281 10.078125 7.113281 10.054688 7.097656 C 9.746094 6.902344 9.449219 6.71875 9.179688 6.546875 C 9.144531 6.523438 9.132812 6.476562 9.15625 6.4375 C 9.175781 6.402344 9.226562 6.390625 9.261719 6.414062 C 9.53125 6.585938 9.828125 6.769531 10.136719 6.964844 C 10.175781 6.988281 10.1875 7.039062 10.164062 7.074219 C 10.15625 7.089844 10.144531 7.097656 10.128906 7.105469 Z M 10.128906 7.105469 " fill-opacity="1" fill-rule="nonzero"/><path fill="#00c2cb" d="M 8.597656 6.140625 C 8.574219 6.148438 8.546875 6.148438 8.523438 6.136719 C 7.894531 5.738281 7.503906 5.492188 7.503906 5.492188 C 7.464844 5.46875 7.453125 5.421875 7.476562 5.382812 C 7.5 5.347656 7.546875 5.335938 7.585938 5.359375 C 7.585938 5.359375 7.980469 5.605469 8.605469 6.003906 C 8.644531 6.023438 8.65625 6.074219 8.632812 6.109375 C 8.625 6.125 8.613281 6.132812 8.597656 6.140625 Z M 8.597656 6.140625 " fill-opacity="1" fill-rule="nonzero"/><path fill="#00c2cb" d="M 17.300781 11.238281 C 17.273438 11.253906 17.242188 11.25 17.21875 11.230469 C 16.988281 11.039062 15.996094 10.296875 14.269531 9.023438 C 14.234375 8.996094 14.230469 8.949219 14.253906 8.914062 C 14.28125 8.878906 14.328125 8.871094 14.363281 8.894531 C 16.089844 10.171875 17.082031 10.914062 17.316406 11.109375 C 17.351562 11.136719 17.355469 11.183594 17.328125 11.21875 C 17.320312 11.226562 17.3125 11.234375 17.300781 11.238281 Z M 17.300781 11.238281 " fill-opacity="1" fill-rule="nonzero"/><path fill="#00c2cb" d="M 13.800781 8.625 C 13.773438 8.636719 13.746094 8.632812 13.722656 8.617188 C 13.441406 8.410156 13.167969 8.210938 12.914062 8.019531 C 12.878906 7.996094 12.871094 7.945312 12.894531 7.910156 C 12.921875 7.875 12.96875 7.871094 13.003906 7.894531 C 13.261719 8.082031 13.535156 8.285156 13.8125 8.492188 C 13.847656 8.515625 13.855469 8.566406 13.828125 8.601562 C 13.820312 8.609375 13.8125 8.621094 13.800781 8.625 Z M 13.800781 8.625 " fill-opacity="1" fill-rule="nonzero"/><path fill="#00c2cb" d="M 12.40625 7.597656 C 12.382812 7.609375 12.351562 7.609375 12.328125 7.589844 C 11.691406 7.121094 11.253906 6.800781 11.253906 6.800781 C 11.21875 6.777344 11.210938 6.726562 11.234375 6.691406 C 11.261719 6.65625 11.308594 6.648438 11.34375 6.675781 C 11.34375 6.675781 11.78125 6.996094 12.417969 7.464844 C 12.453125 7.488281 12.460938 7.539062 12.4375 7.574219 C 12.425781 7.585938 12.417969 7.59375 12.40625 7.597656 Z M 12.40625 7.597656 " fill-opacity="1" fill-rule="nonzero"/><path fill="#00c2cb" d="M 17.503906 10.941406 C 17.476562 10.953125 17.441406 10.949219 17.417969 10.925781 C 16.859375 10.402344 13.457031 7.0625 13.421875 7.027344 C 13.394531 6.996094 13.390625 6.949219 13.421875 6.917969 C 13.453125 6.886719 13.5 6.886719 13.53125 6.914062 C 13.566406 6.949219 16.964844 10.289062 17.523438 10.8125 C 17.554688 10.84375 17.554688 10.890625 17.527344 10.921875 C 17.519531 10.929688 17.511719 10.9375 17.503906 10.941406 Z M 17.503906 10.941406 " fill-opacity="1" fill-rule="nonzero"/><path fill="#00c2cb" d="M 16.066406 13.925781 C 16.050781 13.929688 16.035156 13.933594 16.015625 13.929688 C 15.273438 13.769531 1.597656 10.832031 1.457031 10.804688 C 1.417969 10.792969 1.390625 10.753906 1.398438 10.710938 C 1.40625 10.667969 1.449219 10.640625 1.492188 10.648438 C 1.628906 10.679688 15.304688 13.617188 16.050781 13.777344 C 16.089844 13.785156 16.117188 13.828125 16.109375 13.867188 C 16.105469 13.894531 16.085938 13.914062 16.066406 13.925781 Z M 16.066406 13.925781 " fill-opacity="1" fill-rule="nonzero"/><path fill="#00c2cb" d="M 16.179688 13.582031 C 16.164062 13.589844 16.144531 13.589844 16.125 13.585938 C 15.398438 13.378906 10.609375 12.230469 10.5625 12.21875 C 10.519531 12.210938 10.496094 12.167969 10.503906 12.125 C 10.515625 12.082031 10.558594 12.058594 10.597656 12.066406 C 10.648438 12.078125 15.4375 13.226562 16.167969 13.433594 C 16.207031 13.445312 16.230469 13.488281 16.21875 13.53125 C 16.214844 13.554688 16.199219 13.570312 16.179688 13.582031 Z M 16.179688 13.582031 " fill-opacity="1" fill-rule="nonzero"/><path fill="#00c2cb" d="M 16.292969 13.238281 C 16.273438 13.246094 16.253906 13.246094 16.234375 13.238281 C 15.804688 13.085938 12.0625 11.996094 8.996094 11.109375 C 8.957031 11.097656 8.929688 11.054688 8.941406 11.011719 C 8.957031 10.972656 9 10.949219 9.039062 10.960938 C 12.105469 11.847656 15.851562 12.9375 16.285156 13.089844 C 16.324219 13.105469 16.347656 13.152344 16.332031 13.191406 C 16.324219 13.210938 16.308594 13.226562 16.292969 13.238281 Z M 16.292969 13.238281 " fill-opacity="1" fill-rule="nonzero"/><path fill="#00c2cb" d="M 8.382812 10.910156 C 8.363281 10.917969 8.34375 10.921875 8.328125 10.917969 C 7.972656 10.8125 7.640625 10.71875 7.332031 10.628906 C 7.292969 10.617188 7.269531 10.574219 7.28125 10.53125 C 7.292969 10.492188 7.335938 10.464844 7.375 10.476562 C 7.683594 10.566406 8.015625 10.664062 8.371094 10.765625 C 8.410156 10.777344 8.433594 10.820312 8.421875 10.863281 C 8.417969 10.886719 8.402344 10.902344 8.382812 10.910156 Z M 8.382812 10.910156 " fill-opacity="1" fill-rule="nonzero"/><path fill="#00c2cb" d="M 6.644531 10.410156 C 6.628906 10.417969 6.609375 10.421875 6.589844 10.414062 C 5.878906 10.210938 5.433594 10.082031 5.433594 10.082031 C 5.390625 10.070312 5.367188 10.023438 5.378906 9.984375 C 5.390625 9.941406 5.433594 9.917969 5.476562 9.929688 C 5.476562 9.929688 5.921875 10.058594 6.632812 10.265625 C 6.675781 10.277344 6.699219 10.320312 6.6875 10.359375 C 6.679688 10.382812 6.664062 10.402344 6.644531 10.410156 Z M 6.644531 10.410156 " fill-opacity="1" fill-rule="nonzero"/><path fill="#00c2cb" d="M 16.402344 12.894531 C 16.386719 12.902344 16.363281 12.902344 16.339844 12.894531 C 16.066406 12.777344 14.878906 12.324219 12.902344 11.59375 C 12.863281 11.578125 12.84375 11.53125 12.859375 11.492188 C 12.871094 11.453125 12.917969 11.429688 12.957031 11.445312 C 14.964844 12.191406 16.125 12.628906 16.402344 12.75 C 16.441406 12.765625 16.460938 12.8125 16.441406 12.851562 C 16.433594 12.871094 16.421875 12.886719 16.402344 12.894531 Z M 16.402344 12.894531 " fill-opacity="1" fill-rule="nonzero"/><path fill="#00c2cb" d="M 12.324219 11.351562 C 12.304688 11.363281 12.285156 11.363281 12.265625 11.355469 C 11.941406 11.234375 11.621094 11.117188 11.324219 11.007812 C 11.285156 10.992188 11.261719 10.949219 11.277344 10.90625 C 11.292969 10.867188 11.335938 10.84375 11.378906 10.859375 C 11.675781 10.96875 11.992188 11.089844 12.316406 11.207031 C 12.359375 11.222656 12.378906 11.269531 12.363281 11.308594 C 12.355469 11.328125 12.34375 11.34375 12.324219 11.351562 Z M 12.324219 11.351562 " fill-opacity="1" fill-rule="nonzero"/><path fill="#00c2cb" d="M 10.703125 10.753906 C 10.6875 10.761719 10.664062 10.765625 10.644531 10.757812 C 9.902344 10.484375 9.398438 10.296875 9.398438 10.296875 C 9.355469 10.28125 9.335938 10.238281 9.351562 10.195312 C 9.363281 10.15625 9.410156 10.136719 9.449219 10.148438 C 9.449219 10.148438 9.957031 10.335938 10.699219 10.609375 C 10.738281 10.625 10.757812 10.667969 10.742188 10.710938 C 10.738281 10.730469 10.722656 10.746094 10.703125 10.753906 Z M 10.703125 10.753906 " fill-opacity="1" fill-rule="nonzero"/><path fill="#00c2cb" d="M 16.515625 12.550781 C 16.496094 12.558594 16.472656 12.558594 16.449219 12.546875 C 15.769531 12.199219 11.585938 9.933594 11.542969 9.910156 C 11.507812 9.890625 11.492188 9.84375 11.511719 9.804688 C 11.53125 9.765625 11.578125 9.75 11.617188 9.773438 C 11.660156 9.796875 15.839844 12.0625 16.519531 12.410156 C 16.558594 12.429688 16.574219 12.476562 16.554688 12.515625 C 16.546875 12.53125 16.53125 12.542969 16.515625 12.550781 Z M 16.515625 12.550781 " fill-opacity="1" fill-rule="nonzero"/><g clip-path="url(#d82d429aea)"><path fill="#00c2cb" d="M 15.949219 15.816406 C 15.941406 15.820312 15.933594 15.824219 15.921875 15.824219 C 15.164062 15.878906 1.214844 16.855469 1.074219 16.867188 C 1.03125 16.871094 0.996094 16.835938 0.992188 16.792969 C 0.988281 16.75 1.019531 16.714844 1.0625 16.710938 C 1.203125 16.699219 15.152344 15.722656 15.910156 15.667969 C 15.953125 15.664062 15.992188 15.695312 15.996094 15.738281 C 15.996094 15.773438 15.976562 15.804688 15.949219 15.816406 Z M 15.949219 15.816406 " fill-opacity="1" fill-rule="nonzero"/></g><path fill="#00c2cb" d="M 15.964844 15.453125 C 15.953125 15.460938 15.945312 15.460938 15.933594 15.460938 C 15.175781 15.464844 10.261719 15.695312 10.210938 15.695312 C 10.171875 15.699219 10.132812 15.664062 10.132812 15.621094 C 10.128906 15.578125 10.164062 15.542969 10.207031 15.539062 C 10.253906 15.539062 15.171875 15.308594 15.929688 15.304688 C 15.972656 15.304688 16.007812 15.339844 16.007812 15.382812 C 16.007812 15.414062 15.992188 15.441406 15.964844 15.453125 Z M 15.964844 15.453125 " fill-opacity="1" fill-rule="nonzero"/><path fill="#00c2cb" d="M 15.980469 15.09375 C 15.96875 15.097656 15.953125 15.101562 15.941406 15.101562 C 15.488281 15.074219 11.59375 15.066406 8.402344 15.066406 C 8.359375 15.066406 8.328125 15.03125 8.328125 14.988281 C 8.328125 14.945312 8.359375 14.910156 8.402344 14.910156 C 11.59375 14.910156 15.496094 14.917969 15.949219 14.945312 C 15.992188 14.945312 16.027344 14.984375 16.023438 15.027344 C 16.023438 15.058594 16.003906 15.082031 15.980469 15.09375 Z M 15.980469 15.09375 " fill-opacity="1" fill-rule="nonzero"/><path fill="#00c2cb" d="M 7.738281 15.058594 C 7.730469 15.0625 7.71875 15.066406 7.707031 15.066406 C 7.339844 15.066406 6.992188 15.066406 6.675781 15.066406 C 6.632812 15.066406 6.597656 15.03125 6.597656 14.988281 C 6.597656 14.945312 6.632812 14.910156 6.675781 14.910156 C 6.992188 14.910156 7.339844 14.910156 7.707031 14.910156 C 7.75 14.910156 7.785156 14.945312 7.785156 14.988281 C 7.785156 15.019531 7.765625 15.046875 7.738281 15.058594 Z M 7.738281 15.058594 " fill-opacity="1" fill-rule="nonzero"/><path fill="#00c2cb" d="M 5.933594 15.058594 C 5.925781 15.0625 5.914062 15.066406 5.902344 15.066406 C 5.160156 15.066406 4.695312 15.066406 4.695312 15.066406 C 4.652344 15.066406 4.621094 15.03125 4.621094 14.988281 C 4.617188 14.945312 4.652344 14.910156 4.695312 14.910156 C 4.695312 14.910156 5.160156 14.910156 5.902344 14.910156 C 5.945312 14.910156 5.980469 14.945312 5.980469 14.988281 C 5.980469 15.019531 5.960938 15.046875 5.933594 15.058594 Z M 5.933594 15.058594 " fill-opacity="1" fill-rule="nonzero"/><path fill="#00c2cb" d="M 15.992188 14.730469 C 15.980469 14.738281 15.964844 14.738281 15.953125 14.738281 C 15.65625 14.699219 14.390625 14.597656 12.292969 14.441406 C 12.25 14.441406 12.21875 14.402344 12.21875 14.359375 C 12.222656 14.316406 12.261719 14.285156 12.304688 14.285156 C 14.4375 14.445312 15.667969 14.542969 15.96875 14.582031 C 16.011719 14.589844 16.042969 14.628906 16.039062 14.671875 C 16.035156 14.699219 16.015625 14.71875 15.992188 14.730469 Z M 15.992188 14.730469 " fill-opacity="1" fill-rule="nonzero"/><path fill="#00c2cb" d="M 11.652344 14.386719 C 11.640625 14.390625 11.625 14.394531 11.613281 14.394531 C 11.265625 14.367188 10.929688 14.34375 10.613281 14.320312 C 10.570312 14.316406 10.539062 14.28125 10.542969 14.234375 C 10.546875 14.191406 10.582031 14.160156 10.625 14.164062 C 10.941406 14.1875 11.277344 14.210938 11.625 14.238281 C 11.667969 14.238281 11.699219 14.277344 11.695312 14.320312 C 11.695312 14.351562 11.675781 14.375 11.652344 14.386719 Z M 11.652344 14.386719 " fill-opacity="1" fill-rule="nonzero"/><path fill="#00c2cb" d="M 9.929688 14.261719 C 9.917969 14.265625 9.90625 14.269531 9.890625 14.269531 C 9.105469 14.210938 8.566406 14.171875 8.566406 14.171875 C 8.523438 14.171875 8.492188 14.132812 8.496094 14.089844 C 8.496094 14.046875 8.535156 14.015625 8.578125 14.015625 C 8.578125 14.015625 9.117188 14.054688 9.902344 14.113281 C 9.945312 14.113281 9.976562 14.152344 9.972656 14.195312 C 9.972656 14.226562 9.953125 14.25 9.929688 14.261719 Z M 9.929688 14.261719 " fill-opacity="1" fill-rule="nonzero"/><path fill="#00c2cb" d="M 16.007812 14.371094 C 15.992188 14.375 15.976562 14.378906 15.960938 14.375 C 15.210938 14.230469 10.570312 13.214844 10.523438 13.203125 C 10.484375 13.195312 10.457031 13.152344 10.464844 13.109375 C 10.476562 13.070312 10.515625 13.042969 10.558594 13.050781 C 10.605469 13.0625 15.242188 14.074219 15.992188 14.222656 C 16.03125 14.230469 16.058594 14.269531 16.050781 14.3125 C 16.046875 14.339844 16.03125 14.359375 16.007812 14.371094 Z M 16.007812 14.371094 " fill-opacity="1" fill-rule="nonzero"/><path fill="#00c2cb" d="M 16.355469 17.667969 C 16.355469 17.667969 16.351562 17.667969 16.351562 17.671875 C 15.632812 17.933594 2.496094 22.753906 2.363281 22.804688 C 2.320312 22.816406 2.277344 22.796875 2.261719 22.757812 C 2.246094 22.714844 2.269531 22.671875 2.308594 22.65625 C 2.441406 22.605469 15.582031 17.785156 16.296875 17.523438 C 16.335938 17.507812 16.382812 17.53125 16.394531 17.570312 C 16.410156 17.609375 16.390625 17.652344 16.355469 17.667969 Z M 16.355469 17.667969 " fill-opacity="1" fill-rule="nonzero"/><path fill="#00c2cb" d="M 16.269531 17.316406 C 16.269531 17.316406 16.265625 17.320312 16.261719 17.320312 C 15.535156 17.535156 10.875 19.121094 10.828125 19.136719 C 10.785156 19.152344 10.742188 19.128906 10.726562 19.085938 C 10.714844 19.046875 10.734375 19.003906 10.777344 18.988281 C 10.824219 18.972656 15.488281 17.386719 16.214844 17.171875 C 16.257812 17.15625 16.300781 17.183594 16.3125 17.222656 C 16.324219 17.261719 16.304688 17.300781 16.269531 17.316406 Z M 16.269531 17.316406 " fill-opacity="1" fill-rule="nonzero"/><path fill="#00c2cb" d="M 16.1875 16.964844 C 16.179688 16.96875 16.175781 16.96875 16.171875 16.96875 C 15.726562 17.070312 11.980469 18.148438 8.914062 19.03125 C 8.875 19.042969 8.832031 19.019531 8.820312 18.980469 C 8.808594 18.9375 8.832031 18.894531 8.871094 18.882812 C 11.941406 17.996094 15.6875 16.917969 16.136719 16.816406 C 16.179688 16.808594 16.21875 16.835938 16.230469 16.875 C 16.238281 16.914062 16.21875 16.949219 16.1875 16.964844 Z M 16.1875 16.964844 " fill-opacity="1" fill-rule="nonzero"/><path fill="#00c2cb" d="M 8.257812 19.222656 C 8.253906 19.222656 8.25 19.226562 8.246094 19.226562 C 7.894531 19.328125 7.558594 19.425781 7.253906 19.515625 C 7.210938 19.527344 7.167969 19.503906 7.15625 19.460938 C 7.144531 19.417969 7.167969 19.375 7.210938 19.363281 C 7.515625 19.273438 7.851562 19.179688 8.203125 19.074219 C 8.242188 19.0625 8.285156 19.089844 8.296875 19.128906 C 8.308594 19.167969 8.289062 19.207031 8.257812 19.222656 Z M 8.257812 19.222656 " fill-opacity="1" fill-rule="nonzero"/><path fill="#00c2cb" d="M 6.523438 19.726562 C 6.519531 19.726562 6.515625 19.726562 6.511719 19.730469 C 5.796875 19.9375 5.351562 20.066406 5.351562 20.066406 C 5.3125 20.078125 5.269531 20.054688 5.257812 20.011719 C 5.246094 19.96875 5.269531 19.925781 5.308594 19.914062 C 5.308594 19.914062 5.753906 19.785156 6.46875 19.578125 C 6.507812 19.566406 6.550781 19.589844 6.5625 19.632812 C 6.574219 19.667969 6.554688 19.707031 6.523438 19.726562 Z M 6.523438 19.726562 " fill-opacity="1" fill-rule="nonzero"/><path fill="#00c2cb" d="M 16.101562 16.613281 C 16.09375 16.617188 16.089844 16.617188 16.082031 16.621094 C 15.789062 16.664062 14.542969 16.917969 12.480469 17.351562 C 12.441406 17.363281 12.398438 17.335938 12.390625 17.292969 C 12.382812 17.25 12.410156 17.207031 12.449219 17.199219 C 14.542969 16.757812 15.757812 16.511719 16.058594 16.464844 C 16.097656 16.457031 16.140625 16.488281 16.144531 16.53125 C 16.152344 16.566406 16.132812 16.597656 16.101562 16.613281 Z M 16.101562 16.613281 " fill-opacity="1" fill-rule="nonzero"/><path fill="#00c2cb" d="M 11.832031 17.488281 C 11.828125 17.492188 11.820312 17.492188 11.816406 17.492188 C 11.476562 17.566406 11.144531 17.636719 10.835938 17.703125 C 10.792969 17.710938 10.753906 17.683594 10.742188 17.640625 C 10.734375 17.597656 10.761719 17.558594 10.804688 17.546875 C 11.113281 17.480469 11.445312 17.414062 11.785156 17.339844 C 11.824219 17.332031 11.867188 17.359375 11.875 17.402344 C 11.882812 17.4375 11.863281 17.472656 11.832031 17.488281 Z M 11.832031 17.488281 " fill-opacity="1" fill-rule="nonzero"/><path fill="#00c2cb" d="M 10.144531 17.847656 C 10.136719 17.847656 10.132812 17.851562 10.128906 17.851562 C 9.355469 18.015625 8.828125 18.128906 8.828125 18.128906 C 8.785156 18.140625 8.746094 18.113281 8.734375 18.070312 C 8.726562 18.027344 8.753906 17.984375 8.796875 17.976562 C 8.796875 17.976562 9.324219 17.863281 10.09375 17.699219 C 10.136719 17.691406 10.179688 17.71875 10.1875 17.757812 C 10.195312 17.796875 10.175781 17.832031 10.144531 17.847656 Z M 10.144531 17.847656 " fill-opacity="1" fill-rule="nonzero"/><path fill="#00c2cb" d="M 16.015625 16.261719 C 16.007812 16.265625 16 16.265625 15.992188 16.269531 C 15.230469 16.335938 10.492188 16.648438 10.445312 16.652344 C 10.402344 16.65625 10.367188 16.625 10.363281 16.582031 C 10.359375 16.539062 10.394531 16.5 10.433594 16.496094 C 10.484375 16.492188 15.21875 16.179688 15.976562 16.113281 C 16.019531 16.109375 16.058594 16.140625 16.0625 16.183594 C 16.0625 16.21875 16.046875 16.246094 16.015625 16.261719 Z M 16.015625 16.261719 " fill-opacity="1" fill-rule="nonzero"/><path fill="#00c2cb" d="M 5.207031 28.160156 C 5.175781 28.175781 5.132812 28.164062 5.113281 28.132812 C 5.085938 28.097656 5.09375 28.050781 5.128906 28.023438 C 5.242188 27.941406 16.558594 19.652344 17.171875 19.199219 C 17.207031 19.175781 17.257812 19.183594 17.28125 19.21875 C 17.308594 19.253906 17.300781 19.300781 17.265625 19.328125 C 16.648438 19.78125 5.335938 28.066406 5.222656 28.152344 C 5.214844 28.152344 5.210938 28.15625 5.207031 28.160156 Z M 5.207031 28.160156 " fill-opacity="1" fill-rule="nonzero"/><path fill="#00c2cb" d="M 12.34375 22.277344 C 12.3125 22.296875 12.269531 22.285156 12.246094 22.253906 C 12.222656 22.21875 12.230469 22.167969 12.265625 22.144531 C 12.308594 22.113281 16.359375 19.292969 17 18.882812 C 17.035156 18.859375 17.085938 18.871094 17.105469 18.90625 C 17.128906 18.945312 17.121094 18.992188 17.082031 19.015625 C 16.445312 19.421875 12.398438 22.246094 12.355469 22.273438 C 12.351562 22.273438 12.347656 22.277344 12.34375 22.277344 Z M 12.34375 22.277344 " fill-opacity="1" fill-rule="nonzero"/><path fill="#00c2cb" d="M 10.480469 22.707031 C 10.445312 22.726562 10.40625 22.714844 10.382812 22.679688 C 10.359375 22.644531 10.371094 22.59375 10.40625 22.570312 C 13.113281 20.867188 16.425781 18.785156 16.828125 18.566406 C 16.863281 18.546875 16.910156 18.558594 16.933594 18.597656 C 16.953125 18.636719 16.9375 18.683594 16.902344 18.703125 C 16.503906 18.921875 13.195312 21 10.492188 22.703125 C 10.488281 22.707031 10.484375 22.707031 10.480469 22.707031 Z M 10.480469 22.707031 " fill-opacity="1" fill-rule="nonzero"/><path fill="#00c2cb" d="M 9.015625 23.632812 C 8.980469 23.652344 8.9375 23.636719 8.917969 23.605469 C 8.894531 23.566406 8.90625 23.519531 8.941406 23.496094 C 9.210938 23.324219 9.507812 23.140625 9.816406 22.945312 C 9.851562 22.921875 9.902344 22.933594 9.925781 22.96875 C 9.945312 23.003906 9.9375 23.054688 9.898438 23.078125 C 9.589844 23.273438 9.292969 23.457031 9.023438 23.628906 C 9.019531 23.632812 9.019531 23.632812 9.015625 23.632812 Z M 9.015625 23.632812 " fill-opacity="1" fill-rule="nonzero"/><path fill="#00c2cb" d="M 7.339844 24.691406 C 7.304688 24.707031 7.261719 24.695312 7.242188 24.664062 C 7.21875 24.625 7.230469 24.578125 7.265625 24.554688 C 7.265625 24.554688 7.660156 24.304688 8.285156 23.910156 C 8.324219 23.886719 8.371094 23.898438 8.394531 23.933594 C 8.417969 23.972656 8.40625 24.019531 8.367188 24.042969 C 7.742188 24.4375 7.347656 24.6875 7.347656 24.6875 C 7.34375 24.691406 7.339844 24.691406 7.339844 24.691406 Z M 7.339844 24.691406 " fill-opacity="1" fill-rule="nonzero"/><path fill="#00c2cb" d="M 13.457031 20.097656 C 13.417969 20.117188 13.375 20.101562 13.355469 20.066406 C 13.335938 20.027344 13.351562 19.980469 13.386719 19.960938 C 15.261719 18.960938 16.355469 18.386719 16.644531 18.253906 C 16.648438 18.25 16.652344 18.25 16.652344 18.25 C 16.691406 18.230469 16.738281 18.25 16.757812 18.289062 C 16.773438 18.328125 16.757812 18.375 16.71875 18.390625 C 16.714844 18.394531 16.714844 18.394531 16.710938 18.394531 C 16.429688 18.527344 15.304688 19.117188 13.460938 20.097656 C 13.460938 20.097656 13.457031 20.097656 13.457031 20.097656 Z M 13.457031 20.097656 " fill-opacity="1" fill-rule="nonzero"/><path fill="#00c2cb" d="M 11.96875 20.890625 C 11.933594 20.910156 11.886719 20.894531 11.867188 20.859375 C 11.847656 20.820312 11.863281 20.773438 11.898438 20.753906 C 12.179688 20.601562 12.480469 20.441406 12.785156 20.28125 C 12.824219 20.257812 12.871094 20.273438 12.890625 20.3125 C 12.910156 20.351562 12.894531 20.398438 12.859375 20.417969 C 12.550781 20.582031 12.253906 20.742188 11.972656 20.890625 C 11.972656 20.890625 11.96875 20.890625 11.96875 20.890625 Z M 11.96875 20.890625 " fill-opacity="1" fill-rule="nonzero"/><path fill="#00c2cb" d="M 10.15625 21.863281 C 10.117188 21.878906 10.074219 21.867188 10.054688 21.828125 C 10.035156 21.789062 10.046875 21.742188 10.085938 21.722656 C 10.085938 21.722656 10.5625 21.46875 11.261719 21.09375 C 11.296875 21.074219 11.34375 21.089844 11.363281 21.125 C 11.386719 21.164062 11.371094 21.210938 11.332031 21.234375 C 10.636719 21.605469 10.160156 21.859375 10.160156 21.859375 C 10.15625 21.863281 10.15625 21.863281 10.15625 21.863281 Z M 10.15625 21.863281 " fill-opacity="1" fill-rule="nonzero"/><path fill="#00c2cb" d="M 16.542969 18.078125 C 16.539062 18.078125 16.539062 18.078125 16.535156 18.078125 C 15.824219 18.355469 11.355469 19.976562 11.3125 19.992188 C 11.269531 20.007812 11.226562 19.984375 11.210938 19.945312 C 11.199219 19.902344 11.21875 19.859375 11.257812 19.84375 C 11.304688 19.828125 15.769531 18.207031 16.480469 17.933594 C 16.519531 17.917969 16.566406 17.9375 16.582031 17.976562 C 16.597656 18.015625 16.578125 18.058594 16.542969 18.078125 Z M 16.542969 18.078125 " fill-opacity="1" fill-rule="nonzero"/><path fill="#00c2cb" d="M 9.402344 32.519531 C 9.375 32.53125 9.34375 32.527344 9.320312 32.511719 C 9.289062 32.484375 9.28125 32.433594 9.308594 32.398438 C 9.394531 32.289062 18.007812 21.175781 18.472656 20.570312 C 18.5 20.535156 18.550781 20.527344 18.582031 20.554688 C 18.617188 20.582031 18.625 20.632812 18.597656 20.664062 C 18.128906 21.269531 9.515625 32.382812 9.429688 32.496094 C 9.421875 32.507812 9.414062 32.515625 9.402344 32.519531 Z M 9.402344 32.519531 " fill-opacity="1" fill-rule="nonzero"/><path fill="#00c2cb" d="M 14.65625 24.882812 C 14.628906 24.894531 14.597656 24.890625 14.574219 24.871094 C 14.539062 24.84375 14.535156 24.796875 14.5625 24.761719 C 14.59375 24.722656 17.714844 20.882812 18.222656 20.3125 C 18.25 20.28125 18.296875 20.277344 18.332031 20.304688 C 18.363281 20.335938 18.367188 20.382812 18.335938 20.417969 C 17.835938 20.984375 14.714844 24.824219 14.683594 24.863281 C 14.675781 24.871094 14.664062 24.878906 14.65625 24.882812 Z M 14.65625 24.882812 " fill-opacity="1" fill-rule="nonzero"/><path fill="#00c2cb" d="M 12.984375 25.8125 C 12.957031 25.828125 12.921875 25.824219 12.898438 25.800781 C 12.867188 25.773438 12.863281 25.722656 12.890625 25.691406 C 15.027344 23.296875 17.640625 20.378906 17.96875 20.054688 C 18 20.023438 18.046875 20.027344 18.078125 20.054688 C 18.109375 20.085938 18.109375 20.136719 18.078125 20.167969 C 17.753906 20.488281 15.140625 23.40625 13.007812 25.796875 C 13 25.804688 12.992188 25.808594 12.984375 25.8125 Z M 12.984375 25.8125 " fill-opacity="1" fill-rule="nonzero"/><path fill="#00c2cb" d="M 11.824219 27.113281 C 11.796875 27.125 11.765625 27.121094 11.742188 27.097656 C 11.707031 27.070312 11.707031 27.019531 11.734375 26.988281 C 11.949219 26.75 12.179688 26.488281 12.425781 26.214844 C 12.453125 26.179688 12.503906 26.179688 12.535156 26.207031 C 12.566406 26.234375 12.570312 26.285156 12.542969 26.316406 C 12.296875 26.59375 12.0625 26.851562 11.851562 27.09375 C 11.84375 27.101562 11.835938 27.105469 11.824219 27.113281 Z M 11.824219 27.113281 " fill-opacity="1" fill-rule="nonzero"/><path fill="#00c2cb" d="M 10.503906 28.59375 C 10.476562 28.609375 10.441406 28.605469 10.417969 28.582031 C 10.386719 28.554688 10.382812 28.503906 10.414062 28.472656 C 10.414062 28.472656 10.722656 28.121094 11.21875 27.566406 C 11.246094 27.535156 11.296875 27.53125 11.328125 27.5625 C 11.359375 27.589844 11.363281 27.640625 11.332031 27.671875 C 10.839844 28.226562 10.527344 28.574219 10.527344 28.574219 C 10.519531 28.585938 10.511719 28.589844 10.503906 28.59375 Z M 10.503906 28.59375 " fill-opacity="1" fill-rule="nonzero"/><path fill="#00c2cb" d="M 15.128906 22.476562 C 15.101562 22.492188 15.0625 22.488281 15.039062 22.460938 C 15.011719 22.429688 15.011719 22.378906 15.042969 22.351562 C 16.585938 20.855469 17.484375 20 17.714844 19.800781 C 17.746094 19.769531 17.796875 19.773438 17.824219 19.808594 C 17.851562 19.839844 17.847656 19.890625 17.816406 19.917969 C 17.589844 20.117188 16.691406 20.972656 15.148438 22.464844 C 15.144531 22.46875 15.136719 22.476562 15.128906 22.476562 Z M 15.128906 22.476562 " fill-opacity="1" fill-rule="nonzero"/><path fill="#00c2cb" d="M 13.914062 23.65625 C 13.886719 23.667969 13.851562 23.664062 13.828125 23.636719 C 13.796875 23.605469 13.796875 23.558594 13.828125 23.527344 C 14.058594 23.304688 14.300781 23.070312 14.550781 22.828125 C 14.582031 22.796875 14.632812 22.796875 14.660156 22.828125 C 14.691406 22.859375 14.691406 22.910156 14.660156 22.941406 C 14.410156 23.179688 14.164062 23.417969 13.9375 23.640625 C 13.929688 23.644531 13.921875 23.652344 13.914062 23.65625 Z M 13.914062 23.65625 " fill-opacity="1" fill-rule="nonzero"/><path fill="#00c2cb" d="M 12.4375 25.089844 C 12.410156 25.105469 12.371094 25.097656 12.347656 25.074219 C 12.320312 25.042969 12.320312 24.992188 12.351562 24.964844 C 12.351562 24.964844 12.738281 24.585938 13.308594 24.035156 C 13.339844 24.003906 13.386719 24.003906 13.417969 24.035156 C 13.445312 24.066406 13.445312 24.117188 13.414062 24.148438 C 12.847656 24.699219 12.457031 25.078125 12.457031 25.078125 C 12.453125 25.082031 12.445312 25.085938 12.4375 25.089844 Z M 12.4375 25.089844 " fill-opacity="1" fill-rule="nonzero"/><path fill="#00c2cb" d="M 13.042969 22.96875 C 13.011719 22.984375 12.96875 22.972656 12.949219 22.941406 C 12.921875 22.90625 12.929688 22.859375 12.964844 22.832031 C 13.003906 22.804688 16.855469 20.003906 17.460938 19.542969 C 17.496094 19.515625 17.546875 19.523438 17.570312 19.558594 C 17.597656 19.59375 17.589844 19.640625 17.554688 19.667969 C 16.949219 20.132812 13.09375 22.929688 13.054688 22.960938 C 13.050781 22.960938 13.046875 22.964844 13.042969 22.96875 Z M 13.042969 22.96875 " fill-opacity="1" fill-rule="nonzero"/><path fill="#00c2cb" d="M 14.625 35.542969 C 14.605469 35.554688 14.582031 35.554688 14.5625 35.546875 C 14.523438 35.53125 14.503906 35.484375 14.519531 35.445312 C 14.574219 35.3125 19.8125 22.234375 20.097656 21.523438 C 20.113281 21.484375 20.160156 21.464844 20.199219 21.480469 C 20.238281 21.496094 20.257812 21.542969 20.242188 21.582031 C 19.957031 22.292969 14.714844 35.371094 14.664062 35.503906 C 14.65625 35.523438 14.640625 35.535156 14.625 35.542969 Z M 14.625 35.542969 " fill-opacity="1" fill-rule="nonzero"/><path fill="#00c2cb" d="M 17.589844 26.742188 C 17.570312 26.753906 17.546875 26.753906 17.523438 26.746094 C 17.484375 26.726562 17.46875 26.679688 17.484375 26.640625 C 17.503906 26.59375 19.457031 22.035156 19.785156 21.347656 C 19.804688 21.308594 19.851562 21.289062 19.890625 21.308594 C 19.925781 21.328125 19.945312 21.375 19.925781 21.414062 C 19.597656 22.101562 17.648438 26.65625 17.628906 26.703125 C 17.617188 26.722656 17.605469 26.734375 17.589844 26.742188 Z M 17.589844 26.742188 " fill-opacity="1" fill-rule="nonzero"/><path fill="#00c2cb" d="M 16.234375 28.105469 C 16.214844 28.113281 16.191406 28.113281 16.167969 28.101562 C 16.128906 28.082031 16.113281 28.035156 16.132812 28 C 17.53125 25.105469 19.246094 21.570312 19.472656 21.167969 C 19.492188 21.132812 19.539062 21.117188 19.578125 21.140625 C 19.613281 21.160156 19.628906 21.210938 19.605469 21.246094 C 19.382812 21.644531 17.671875 25.175781 16.273438 28.066406 C 16.261719 28.082031 16.25 28.097656 16.234375 28.105469 Z M 16.234375 28.105469 " fill-opacity="1" fill-rule="nonzero"/><path fill="#00c2cb" d="M 15.476562 29.671875 C 15.457031 29.683594 15.429688 29.683594 15.410156 29.671875 C 15.371094 29.652344 15.355469 29.605469 15.375 29.566406 C 15.515625 29.277344 15.667969 28.960938 15.828125 28.628906 C 15.84375 28.589844 15.890625 28.574219 15.929688 28.59375 C 15.96875 28.613281 15.984375 28.660156 15.964844 28.699219 C 15.804688 29.03125 15.652344 29.347656 15.511719 29.636719 C 15.503906 29.652344 15.492188 29.664062 15.476562 29.671875 Z M 15.476562 29.671875 " fill-opacity="1" fill-rule="nonzero"/><path fill="#00c2cb" d="M 14.609375 31.464844 C 14.589844 31.476562 14.566406 31.476562 14.542969 31.464844 C 14.503906 31.445312 14.488281 31.398438 14.507812 31.359375 C 14.507812 31.359375 14.710938 30.9375 15.035156 30.265625 C 15.054688 30.226562 15.101562 30.210938 15.140625 30.230469 C 15.179688 30.25 15.195312 30.296875 15.175781 30.335938 C 14.851562 31.007812 14.648438 31.429688 14.648438 31.429688 C 14.640625 31.445312 14.625 31.457031 14.609375 31.464844 Z M 14.609375 31.464844 " fill-opacity="1" fill-rule="nonzero"/><path fill="#00c2cb" d="M 17.386719 24.300781 C 17.363281 24.308594 17.339844 24.308594 17.316406 24.296875 C 17.277344 24.273438 17.265625 24.226562 17.285156 24.191406 C 18.363281 22.324219 18.992188 21.25 19.160156 20.992188 C 19.183594 20.957031 19.230469 20.949219 19.265625 20.972656 C 19.300781 20.996094 19.3125 21.042969 19.289062 21.078125 C 19.125 21.328125 18.480469 22.433594 17.421875 24.269531 C 17.414062 24.28125 17.402344 24.292969 17.386719 24.300781 Z M 17.386719 24.300781 " fill-opacity="1" fill-rule="nonzero"/><path fill="#00c2cb" d="M 16.542969 25.769531 C 16.519531 25.777344 16.492188 25.777344 16.46875 25.765625 C 16.433594 25.742188 16.421875 25.695312 16.441406 25.65625 C 16.601562 25.378906 16.769531 25.085938 16.945312 24.785156 C 16.964844 24.746094 17.015625 24.734375 17.050781 24.753906 C 17.089844 24.777344 17.101562 24.824219 17.078125 24.863281 C 16.90625 25.164062 16.734375 25.460938 16.578125 25.734375 C 16.566406 25.75 16.554688 25.761719 16.542969 25.769531 Z M 16.542969 25.769531 " fill-opacity="1" fill-rule="nonzero"/><path fill="#00c2cb" d="M 15.511719 27.558594 C 15.492188 27.570312 15.464844 27.570312 15.441406 27.558594 C 15.40625 27.535156 15.390625 27.488281 15.414062 27.449219 C 15.414062 27.449219 15.683594 26.980469 16.078125 26.289062 C 16.101562 26.253906 16.148438 26.238281 16.183594 26.261719 C 16.222656 26.28125 16.234375 26.332031 16.214844 26.367188 C 15.816406 27.058594 15.546875 27.527344 15.546875 27.527344 C 15.539062 27.542969 15.527344 27.554688 15.511719 27.558594 Z M 15.511719 27.558594 " fill-opacity="1" fill-rule="nonzero"/><path fill="#00c2cb" d="M 15.515625 25.351562 C 15.488281 25.363281 15.457031 25.359375 15.433594 25.339844 C 15.402344 25.3125 15.394531 25.265625 15.421875 25.230469 C 15.449219 25.191406 18.386719 21.429688 18.847656 20.816406 C 18.871094 20.78125 18.921875 20.777344 18.953125 20.800781 C 18.988281 20.828125 18.996094 20.878906 18.96875 20.910156 C 18.511719 21.527344 15.574219 25.289062 15.542969 25.328125 C 15.535156 25.335938 15.527344 25.34375 15.515625 25.351562 Z M 15.515625 25.351562 " fill-opacity="1" fill-rule="nonzero"/><g clip-path="url(#74b6b2821d)"><path fill="#00c2cb" d="M 20.472656 37 C 20.457031 37.007812 20.445312 37.007812 20.429688 37.007812 C 20.386719 37.003906 20.355469 36.964844 20.359375 36.921875 C 20.375 36.78125 21.84375 22.75 21.921875 21.988281 C 21.925781 21.945312 21.964844 21.914062 22.007812 21.917969 C 22.050781 21.921875 22.078125 21.960938 22.074219 22.003906 C 21.996094 22.769531 20.53125 36.796875 20.515625 36.9375 C 20.511719 36.964844 20.496094 36.988281 20.472656 37 Z M 20.472656 37 " fill-opacity="1" fill-rule="nonzero"/></g><path fill="#00c2cb" d="M 20.914062 27.714844 C 20.902344 27.722656 20.886719 27.726562 20.875 27.722656 C 20.832031 27.71875 20.800781 27.679688 20.804688 27.636719 C 20.8125 27.585938 21.445312 22.660156 21.570312 21.90625 C 21.578125 21.863281 21.617188 21.832031 21.660156 21.839844 C 21.703125 21.847656 21.730469 21.890625 21.722656 21.929688 C 21.597656 22.683594 20.964844 27.605469 20.960938 27.65625 C 20.957031 27.683594 20.9375 27.703125 20.914062 27.714844 Z M 20.914062 27.714844 " fill-opacity="1" fill-rule="nonzero"/><path fill="#00c2cb" d="M 19.984375 29.398438 C 19.972656 29.40625 19.957031 29.410156 19.941406 29.40625 C 19.898438 29.398438 19.871094 29.359375 19.878906 29.316406 C 20.433594 26.144531 21.117188 22.273438 21.222656 21.824219 C 21.230469 21.78125 21.273438 21.753906 21.316406 21.765625 C 21.355469 21.773438 21.382812 21.816406 21.371094 21.859375 C 21.265625 22.304688 20.585938 26.175781 20.03125 29.34375 C 20.027344 29.367188 20.007812 29.390625 19.984375 29.398438 Z M 19.984375 29.398438 " fill-opacity="1" fill-rule="nonzero"/><path fill="#00c2cb" d="M 19.6875 31.117188 C 19.671875 31.125 19.65625 31.128906 19.640625 31.125 C 19.597656 31.117188 19.570312 31.078125 19.578125 31.035156 C 19.632812 30.71875 19.691406 30.371094 19.757812 30.007812 C 19.761719 29.964844 19.804688 29.9375 19.847656 29.945312 C 19.886719 29.953125 19.917969 29.992188 19.910156 30.035156 C 19.84375 30.398438 19.785156 30.742188 19.730469 31.0625 C 19.726562 31.085938 19.707031 31.109375 19.6875 31.117188 Z M 19.6875 31.117188 " fill-opacity="1" fill-rule="nonzero"/><path fill="#00c2cb" d="M 19.34375 33.082031 C 19.332031 33.089844 19.3125 33.09375 19.296875 33.089844 C 19.253906 33.082031 19.226562 33.042969 19.234375 33 C 19.234375 33 19.316406 32.539062 19.441406 31.800781 C 19.449219 31.757812 19.492188 31.730469 19.53125 31.738281 C 19.574219 31.746094 19.605469 31.785156 19.597656 31.828125 C 19.46875 32.566406 19.386719 33.027344 19.386719 33.027344 C 19.382812 33.050781 19.367188 33.074219 19.34375 33.082031 Z M 19.34375 33.082031 " fill-opacity="1" fill-rule="nonzero"/><path fill="#00c2cb" d="M 20.054688 25.421875 C 20.039062 25.429688 20.019531 25.433594 20.003906 25.429688 C 19.960938 25.417969 19.9375 25.375 19.945312 25.332031 C 20.472656 23.242188 20.78125 22.03125 20.871094 21.742188 C 20.886719 21.699219 20.929688 21.675781 20.96875 21.6875 C 21.011719 21.703125 21.035156 21.746094 21.019531 21.785156 C 20.933594 22.078125 20.621094 23.28125 20.097656 25.371094 C 20.089844 25.394531 20.074219 25.414062 20.054688 25.421875 Z M 20.054688 25.421875 " fill-opacity="1" fill-rule="nonzero"/><path fill="#00c2cb" d="M 19.644531 27.070312 C 19.628906 27.078125 19.609375 27.078125 19.589844 27.074219 C 19.550781 27.0625 19.523438 27.019531 19.535156 26.980469 C 19.613281 26.667969 19.695312 26.335938 19.78125 26 C 19.789062 25.957031 19.832031 25.933594 19.875 25.941406 C 19.914062 25.953125 19.941406 25.996094 19.929688 26.039062 C 19.847656 26.375 19.761719 26.707031 19.6875 27.015625 C 19.679688 27.042969 19.664062 27.058594 19.644531 27.070312 Z M 19.644531 27.070312 " fill-opacity="1" fill-rule="nonzero"/><path fill="#00c2cb" d="M 19.144531 29.078125 C 19.128906 29.085938 19.109375 29.085938 19.09375 29.082031 C 19.050781 29.074219 19.027344 29.03125 19.035156 28.988281 C 19.035156 28.988281 19.167969 28.460938 19.359375 27.6875 C 19.371094 27.644531 19.410156 27.621094 19.453125 27.632812 C 19.496094 27.640625 19.519531 27.683594 19.507812 27.726562 C 19.316406 28.5 19.1875 29.027344 19.1875 29.027344 C 19.179688 29.050781 19.164062 29.070312 19.144531 29.078125 Z M 19.144531 29.078125 " fill-opacity="1" fill-rule="nonzero"/><path fill="#00c2cb" d="M 18.542969 26.953125 C 18.523438 26.960938 18.5 26.964844 18.480469 26.953125 C 18.441406 26.9375 18.421875 26.890625 18.4375 26.851562 C 18.457031 26.808594 20.25 22.375 20.523438 21.660156 C 20.539062 21.617188 20.585938 21.597656 20.625 21.613281 C 20.664062 21.628906 20.683594 21.675781 20.667969 21.714844 C 20.394531 22.433594 18.597656 26.867188 18.582031 26.910156 C 18.574219 26.929688 18.558594 26.945312 18.542969 26.953125 Z M 18.542969 26.953125 " fill-opacity="1" fill-rule="nonzero"/><path fill="#00c2cb" d="M 26.488281 36.773438 C 26.484375 36.777344 26.476562 36.777344 26.46875 36.78125 C 26.425781 36.789062 26.386719 36.757812 26.378906 36.71875 C 26.355469 36.578125 23.933594 22.683594 23.800781 21.925781 C 23.792969 21.886719 23.820312 21.84375 23.863281 21.835938 C 23.90625 21.828125 23.945312 21.859375 23.953125 21.898438 C 24.085938 22.65625 26.507812 36.550781 26.53125 36.691406 C 26.539062 36.726562 26.519531 36.757812 26.488281 36.773438 Z M 26.488281 36.773438 " fill-opacity="1" fill-rule="nonzero"/><path fill="#00c2cb" d="M 24.378906 27.726562 C 24.375 27.730469 24.367188 27.730469 24.359375 27.730469 C 24.316406 27.738281 24.277344 27.710938 24.269531 27.667969 C 24.261719 27.617188 23.523438 22.707031 23.441406 21.945312 C 23.4375 21.902344 23.464844 21.863281 23.507812 21.859375 C 23.550781 21.855469 23.589844 21.886719 23.59375 21.929688 C 23.679688 22.6875 24.417969 27.59375 24.425781 27.644531 C 24.429688 27.679688 24.410156 27.710938 24.378906 27.726562 Z M 24.378906 27.726562 " fill-opacity="1" fill-rule="nonzero"/><path fill="#00c2cb" d="M 23.945312 29.601562 C 23.9375 29.605469 23.929688 29.609375 23.921875 29.609375 C 23.878906 29.613281 23.839844 29.582031 23.835938 29.539062 C 23.503906 26.339844 23.101562 22.425781 23.082031 21.964844 C 23.082031 21.921875 23.113281 21.882812 23.15625 21.882812 C 23.199219 21.878906 23.234375 21.914062 23.238281 21.957031 C 23.257812 22.414062 23.660156 26.324219 23.992188 29.523438 C 23.996094 29.558594 23.976562 29.589844 23.945312 29.601562 Z M 23.945312 29.601562 " fill-opacity="1" fill-rule="nonzero"/><path fill="#00c2cb" d="M 24.128906 31.339844 C 24.121094 31.34375 24.113281 31.34375 24.101562 31.347656 C 24.058594 31.351562 24.023438 31.320312 24.019531 31.277344 C 23.984375 30.957031 23.949219 30.605469 23.910156 30.238281 C 23.90625 30.195312 23.9375 30.15625 23.980469 30.152344 C 24.019531 30.148438 24.058594 30.179688 24.0625 30.222656 C 24.101562 30.589844 24.140625 30.9375 24.171875 31.257812 C 24.175781 31.292969 24.15625 31.324219 24.128906 31.339844 Z M 24.128906 31.339844 " fill-opacity="1" fill-rule="nonzero"/><path fill="#00c2cb" d="M 24.335938 33.324219 C 24.328125 33.324219 24.320312 33.328125 24.3125 33.328125 C 24.269531 33.332031 24.230469 33.304688 24.226562 33.257812 C 24.226562 33.257812 24.175781 32.792969 24.097656 32.050781 C 24.09375 32.007812 24.125 31.96875 24.167969 31.964844 C 24.210938 31.960938 24.25 31.992188 24.253906 32.035156 C 24.332031 32.777344 24.378906 33.242188 24.378906 33.242188 C 24.382812 33.277344 24.363281 33.308594 24.335938 33.324219 Z M 24.335938 33.324219 " fill-opacity="1" fill-rule="nonzero"/><path fill="#00c2cb" d="M 22.925781 25.761719 C 22.917969 25.765625 22.90625 25.769531 22.894531 25.769531 C 22.851562 25.769531 22.816406 25.734375 22.816406 25.691406 C 22.75 23.535156 22.71875 22.289062 22.722656 21.980469 C 22.726562 21.9375 22.761719 21.902344 22.804688 21.90625 C 22.847656 21.90625 22.878906 21.941406 22.878906 21.984375 C 22.875 22.285156 22.90625 23.566406 22.972656 25.6875 C 22.972656 25.71875 22.953125 25.75 22.925781 25.761719 Z M 22.925781 25.761719 " fill-opacity="1" fill-rule="nonzero"/><path fill="#00c2cb" d="M 22.980469 27.457031 C 22.972656 27.460938 22.960938 27.464844 22.949219 27.464844 C 22.90625 27.464844 22.871094 27.433594 22.871094 27.390625 C 22.859375 27.070312 22.847656 26.726562 22.835938 26.378906 C 22.835938 26.335938 22.871094 26.300781 22.914062 26.296875 C 22.957031 26.296875 22.992188 26.332031 22.992188 26.375 C 23.003906 26.722656 23.015625 27.0625 23.023438 27.382812 C 23.027344 27.417969 23.007812 27.445312 22.980469 27.457031 Z M 22.980469 27.457031 " fill-opacity="1" fill-rule="nonzero"/><path fill="#00c2cb" d="M 23.050781 29.527344 C 23.039062 29.53125 23.03125 29.535156 23.019531 29.535156 C 22.976562 29.535156 22.941406 29.503906 22.9375 29.460938 C 22.9375 29.460938 22.921875 28.914062 22.894531 28.121094 C 22.894531 28.078125 22.925781 28.039062 22.96875 28.039062 C 23.011719 28.039062 23.046875 28.070312 23.050781 28.113281 C 23.074219 28.910156 23.09375 29.453125 23.09375 29.453125 C 23.097656 29.484375 23.078125 29.515625 23.050781 29.527344 Z M 23.050781 29.527344 " fill-opacity="1" fill-rule="nonzero"/><path fill="#00c2cb" d="M 21.890625 27.652344 C 21.878906 27.65625 21.863281 27.660156 21.847656 27.660156 C 21.804688 27.65625 21.773438 27.617188 21.78125 27.574219 C 21.785156 27.523438 22.300781 22.765625 22.367188 22 C 22.371094 21.957031 22.40625 21.925781 22.449219 21.929688 C 22.492188 21.933594 22.523438 21.96875 22.519531 22.011719 C 22.457031 22.78125 21.941406 27.542969 21.933594 27.589844 C 21.929688 27.617188 21.914062 27.640625 21.890625 27.652344 Z M 21.890625 27.652344 " fill-opacity="1" fill-rule="nonzero"/><path fill="#00c2cb" d="M 32.210938 34.882812 C 32.175781 34.902344 32.128906 34.886719 32.109375 34.847656 C 32.046875 34.71875 25.921875 22.039062 25.589844 21.347656 C 25.570312 21.308594 25.585938 21.261719 25.625 21.242188 C 25.664062 21.222656 25.710938 21.238281 25.726562 21.277344 C 26.0625 21.96875 32.1875 34.648438 32.25 34.777344 C 32.269531 34.816406 32.253906 34.863281 32.214844 34.882812 C 32.214844 34.882812 32.210938 34.882812 32.210938 34.882812 Z M 32.210938 34.882812 " fill-opacity="1" fill-rule="nonzero"/><path fill="#00c2cb" d="M 27.714844 26.769531 C 27.714844 26.769531 27.710938 26.769531 27.710938 26.769531 C 27.671875 26.789062 27.628906 26.773438 27.609375 26.734375 C 27.589844 26.6875 25.535156 22.171875 25.25 21.464844 C 25.234375 21.425781 25.253906 21.378906 25.292969 21.363281 C 25.332031 21.347656 25.375 21.363281 25.394531 21.40625 C 25.679688 22.109375 27.730469 26.621094 27.75 26.667969 C 27.769531 26.707031 27.75 26.753906 27.714844 26.769531 Z M 27.714844 26.769531 " fill-opacity="1" fill-rule="nonzero"/><path fill="#00c2cb" d="M 27.808594 28.695312 C 27.808594 28.695312 27.808594 28.699219 27.804688 28.699219 C 27.765625 28.714844 27.71875 28.695312 27.703125 28.65625 C 26.507812 25.667969 25.054688 22.019531 24.910156 21.582031 C 24.894531 21.539062 24.917969 21.496094 24.957031 21.484375 C 25 21.46875 25.042969 21.492188 25.058594 21.53125 C 25.199219 21.964844 26.65625 25.613281 27.847656 28.597656 C 27.863281 28.636719 27.847656 28.679688 27.808594 28.695312 Z M 27.808594 28.695312 " fill-opacity="1" fill-rule="nonzero"/><path fill="#00c2cb" d="M 28.457031 30.316406 C 28.457031 30.316406 28.453125 30.316406 28.453125 30.316406 C 28.414062 30.332031 28.367188 30.3125 28.351562 30.273438 C 28.234375 29.972656 28.101562 29.648438 27.964844 29.304688 C 27.949219 29.265625 27.96875 29.21875 28.007812 29.203125 C 28.046875 29.1875 28.09375 29.207031 28.109375 29.246094 C 28.246094 29.589844 28.375 29.914062 28.496094 30.214844 C 28.511719 30.253906 28.496094 30.296875 28.457031 30.316406 Z M 28.457031 30.316406 " fill-opacity="1" fill-rule="nonzero"/><path fill="#00c2cb" d="M 29.199219 32.164062 C 29.199219 32.164062 29.195312 32.164062 29.195312 32.164062 C 29.15625 32.179688 29.109375 32.164062 29.09375 32.121094 C 29.09375 32.121094 28.921875 31.6875 28.640625 30.996094 C 28.625 30.953125 28.644531 30.910156 28.683594 30.894531 C 28.726562 30.875 28.769531 30.894531 28.785156 30.9375 C 29.0625 31.628906 29.238281 32.0625 29.238281 32.0625 C 29.253906 32.101562 29.238281 32.144531 29.199219 32.164062 Z M 29.199219 32.164062 " fill-opacity="1" fill-rule="nonzero"/><path fill="#00c2cb" d="M 25.777344 25.289062 C 25.777344 25.289062 25.773438 25.289062 25.769531 25.289062 C 25.730469 25.304688 25.683594 25.28125 25.671875 25.242188 C 25.019531 23.1875 24.648438 21.996094 24.570312 21.699219 C 24.558594 21.65625 24.582031 21.613281 24.625 21.601562 C 24.667969 21.589844 24.710938 21.617188 24.71875 21.660156 C 24.796875 21.949219 25.175781 23.171875 25.820312 25.191406 C 25.832031 25.230469 25.8125 25.269531 25.777344 25.289062 Z M 25.777344 25.289062 " fill-opacity="1" fill-rule="nonzero"/><path fill="#00c2cb" d="M 26.292969 26.902344 C 26.292969 26.90625 26.289062 26.90625 26.285156 26.90625 C 26.246094 26.921875 26.199219 26.898438 26.1875 26.855469 C 26.089844 26.550781 25.988281 26.226562 25.878906 25.894531 C 25.867188 25.851562 25.890625 25.808594 25.929688 25.796875 C 25.972656 25.78125 26.015625 25.804688 26.027344 25.847656 C 26.132812 26.179688 26.238281 26.503906 26.335938 26.808594 C 26.347656 26.847656 26.328125 26.886719 26.292969 26.902344 Z M 26.292969 26.902344 " fill-opacity="1" fill-rule="nonzero"/><path fill="#00c2cb" d="M 26.925781 28.875 C 26.921875 28.875 26.921875 28.875 26.917969 28.878906 C 26.875 28.890625 26.832031 28.867188 26.820312 28.828125 C 26.820312 28.828125 26.652344 28.308594 26.410156 27.550781 C 26.398438 27.511719 26.417969 27.464844 26.460938 27.453125 C 26.5 27.441406 26.542969 27.460938 26.558594 27.503906 C 26.800781 28.261719 26.96875 28.777344 26.96875 28.777344 C 26.980469 28.816406 26.960938 28.855469 26.925781 28.875 Z M 26.925781 28.875 " fill-opacity="1" fill-rule="nonzero"/><path fill="#00c2cb" d="M 25.300781 27.394531 C 25.292969 27.394531 25.285156 27.398438 25.28125 27.398438 C 25.238281 27.40625 25.195312 27.378906 25.191406 27.335938 C 25.183594 27.289062 24.378906 22.570312 24.230469 21.816406 C 24.222656 21.773438 24.25 21.730469 24.292969 21.722656 C 24.335938 21.714844 24.375 21.742188 24.382812 21.785156 C 24.53125 22.539062 25.335938 27.261719 25.34375 27.308594 C 25.347656 27.34375 25.332031 27.378906 25.300781 27.394531 Z M 25.300781 27.394531 " fill-opacity="1" fill-rule="nonzero"/><g clip-path="url(#0153801a00)"><path fill="#00c2cb" d="M 37.195312 31.472656 C 37.167969 31.488281 37.128906 31.480469 37.105469 31.453125 C 37.011719 31.347656 27.660156 20.863281 27.152344 20.292969 C 27.121094 20.261719 27.125 20.210938 27.15625 20.179688 C 27.1875 20.152344 27.238281 20.15625 27.265625 20.1875 C 27.777344 20.757812 37.128906 31.242188 37.222656 31.351562 C 37.25 31.382812 37.25 31.433594 37.214844 31.460938 C 37.210938 31.464844 37.203125 31.46875 37.195312 31.472656 Z M 37.195312 31.472656 " fill-opacity="1" fill-rule="nonzero"/></g><path fill="#00c2cb" d="M 30.65625 24.925781 C 30.625 24.941406 30.585938 24.933594 30.5625 24.90625 C 30.53125 24.867188 27.324219 21.101562 26.855469 20.5 C 26.828125 20.464844 26.835938 20.417969 26.867188 20.390625 C 26.902344 20.363281 26.949219 20.367188 26.976562 20.402344 C 27.445312 21 30.648438 24.765625 30.683594 24.804688 C 30.710938 24.839844 30.707031 24.886719 30.675781 24.914062 C 30.667969 24.921875 30.664062 24.925781 30.65625 24.925781 Z M 30.65625 24.925781 " fill-opacity="1" fill-rule="nonzero"/><path fill="#00c2cb" d="M 31.273438 26.75 C 31.242188 26.765625 31.203125 26.757812 31.179688 26.726562 C 29.214844 24.191406 26.820312 21.085938 26.5625 20.707031 C 26.535156 20.671875 26.546875 20.621094 26.582031 20.597656 C 26.617188 20.574219 26.664062 20.582031 26.6875 20.617188 C 26.945312 20.996094 29.339844 24.097656 31.304688 26.632812 C 31.328125 26.664062 31.324219 26.714844 31.289062 26.742188 C 31.285156 26.746094 31.28125 26.75 31.273438 26.75 Z M 31.273438 26.75 " fill-opacity="1" fill-rule="nonzero"/><path fill="#00c2cb" d="M 32.339844 28.125 C 32.308594 28.140625 32.269531 28.132812 32.246094 28.105469 C 32.046875 27.851562 31.835938 27.574219 31.609375 27.28125 C 31.582031 27.25 31.589844 27.199219 31.621094 27.171875 C 31.65625 27.144531 31.707031 27.152344 31.730469 27.1875 C 31.957031 27.476562 32.171875 27.753906 32.367188 28.007812 C 32.394531 28.042969 32.386719 28.089844 32.355469 28.117188 C 32.351562 28.121094 32.34375 28.125 32.339844 28.125 Z M 32.339844 28.125 " fill-opacity="1" fill-rule="nonzero"/><path fill="#00c2cb" d="M 33.558594 29.699219 C 33.527344 29.710938 33.488281 29.703125 33.464844 29.675781 C 33.464844 29.675781 33.175781 29.304688 32.722656 28.71875 C 32.695312 28.683594 32.699219 28.632812 32.734375 28.605469 C 32.769531 28.582031 32.816406 28.585938 32.84375 28.621094 C 33.300781 29.210938 33.585938 29.578125 33.585938 29.578125 C 33.613281 29.613281 33.605469 29.660156 33.574219 29.6875 C 33.570312 29.691406 33.5625 29.695312 33.558594 29.699219 Z M 33.558594 29.699219 " fill-opacity="1" fill-rule="nonzero"/><path fill="#00c2cb" d="M 28.390625 24.039062 C 28.355469 24.054688 28.316406 24.042969 28.292969 24.011719 C 27.105469 22.21875 26.421875 21.175781 26.265625 20.914062 C 26.246094 20.875 26.257812 20.828125 26.292969 20.804688 C 26.332031 20.785156 26.378906 20.796875 26.402344 20.832031 C 26.550781 21.089844 27.25 22.160156 28.421875 23.925781 C 28.445312 23.960938 28.4375 24.007812 28.402344 24.03125 C 28.398438 24.035156 28.394531 24.039062 28.390625 24.039062 Z M 28.390625 24.039062 " fill-opacity="1" fill-rule="nonzero"/><path fill="#00c2cb" d="M 29.328125 25.449219 C 29.292969 25.464844 29.253906 25.453125 29.230469 25.421875 C 29.054688 25.15625 28.867188 24.871094 28.671875 24.582031 C 28.648438 24.546875 28.660156 24.496094 28.695312 24.472656 C 28.730469 24.449219 28.777344 24.460938 28.800781 24.496094 C 28.996094 24.785156 29.183594 25.066406 29.359375 25.332031 C 29.382812 25.371094 29.375 25.417969 29.339844 25.441406 C 29.335938 25.445312 29.332031 25.445312 29.328125 25.449219 Z M 29.328125 25.449219 " fill-opacity="1" fill-rule="nonzero"/><path fill="#00c2cb" d="M 30.472656 27.167969 C 30.441406 27.183594 30.398438 27.171875 30.378906 27.140625 C 30.378906 27.140625 30.074219 26.6875 29.636719 26.027344 C 29.609375 25.992188 29.621094 25.941406 29.65625 25.917969 C 29.691406 25.894531 29.738281 25.90625 29.765625 25.941406 C 30.203125 26.601562 30.503906 27.050781 30.503906 27.050781 C 30.53125 27.085938 30.519531 27.136719 30.484375 27.160156 C 30.480469 27.164062 30.476562 27.164062 30.472656 27.167969 Z M 30.472656 27.167969 " fill-opacity="1" fill-rule="nonzero"/><path fill="#00c2cb" d="M 28.503906 26.195312 C 28.46875 26.214844 28.421875 26.199219 28.402344 26.160156 C 28.382812 26.117188 26.320312 21.804688 25.972656 21.121094 C 25.953125 21.082031 25.96875 21.035156 26.007812 21.015625 C 26.046875 20.996094 26.09375 21.011719 26.113281 21.046875 C 26.457031 21.734375 28.523438 26.046875 28.542969 26.089844 C 28.5625 26.128906 28.546875 26.175781 28.507812 26.195312 C 28.507812 26.195312 28.507812 26.195312 28.503906 26.195312 Z M 28.503906 26.195312 " fill-opacity="1" fill-rule="nonzero"/><g fill="#5ce1e6" fill-opacity="0.302"><g transform="translate(45.081357, 15.958304)"><g><path d="M 1.484375 -13.859375 L 13.46875 -13.859375 L 13.46875 -10.53125 L 5.9375 -10.53125 L 5.9375 -8.625 L 12.390625 -8.625 L 12.390625 -5.4375 L 5.9375 -5.4375 L 5.9375 -3.328125 L 13.609375 -3.328125 L 13.609375 0 L 1.484375 0 Z M 1.484375 -13.859375 "/></g></g></g><g fill="#5ce1e6" fill-opacity="0.302"><g transform="translate(59.618003, 15.958304)"><g><path d="M 8.09375 -14.09375 C 10.144531 -14.09375 11.769531 -13.578125 12.96875 -12.546875 C 14.164062 -11.523438 14.765625 -10.0625 14.765625 -8.15625 L 10.515625 -8.15625 C 10.515625 -8.957031 10.300781 -9.59375 9.875 -10.0625 C 9.457031 -10.539062 8.859375 -10.78125 8.078125 -10.78125 C 7.179688 -10.78125 6.519531 -10.492188 6.09375 -9.921875 C 5.664062 -9.359375 5.453125 -8.578125 5.453125 -7.578125 L 5.453125 -6.28125 C 5.453125 -5.289062 5.664062 -4.507812 6.09375 -3.9375 C 6.519531 -3.363281 7.164062 -3.078125 8.03125 -3.078125 C 8.894531 -3.078125 9.546875 -3.296875 9.984375 -3.734375 C 10.429688 -4.179688 10.65625 -4.8125 10.65625 -5.625 L 14.765625 -5.625 C 14.765625 -3.726562 14.179688 -2.273438 13.015625 -1.265625 C 11.859375 -0.265625 10.21875 0.234375 8.09375 0.234375 C 5.726562 0.234375 3.9375 -0.367188 2.71875 -1.578125 C 1.507812 -2.785156 0.90625 -4.566406 0.90625 -6.921875 C 0.90625 -9.285156 1.507812 -11.070312 2.71875 -12.28125 C 3.9375 -13.488281 5.726562 -14.09375 8.09375 -14.09375 Z M 8.09375 -14.09375 "/></g></g></g><g fill="#5ce1e6" fill-opacity="0.302"><g transform="translate(75.282148, 15.958304)"><g><path d="M 1.484375 -13.859375 L 5.9375 -13.859375 L 5.9375 -3.546875 L 13.046875 -3.546875 L 13.046875 0 L 1.484375 0 Z M 1.484375 -13.859375 "/></g></g></g><g fill="#5ce1e6" fill-opacity="0.302"><g transform="translate(88.711432, 15.958304)"><g><path d="M 1.6875 0 L 1.6875 -13.859375 L 6.140625 -13.859375 L 6.140625 0 Z M 1.6875 0 "/></g></g></g><g fill="#5ce1e6" fill-opacity="0.302"><g transform="translate(96.543504, 15.958304)"><g><path d="M 9.265625 -13.859375 C 10.117188 -13.859375 10.878906 -13.660156 11.546875 -13.265625 C 12.222656 -12.867188 12.75 -12.320312 13.125 -11.625 C 13.507812 -10.9375 13.703125 -10.164062 13.703125 -9.3125 L 13.703125 -9.046875 C 13.703125 -8.179688 13.507812 -7.398438 13.125 -6.703125 C 12.75 -6.003906 12.222656 -5.457031 11.546875 -5.0625 C 10.878906 -4.664062 10.117188 -4.46875 9.265625 -4.46875 L 5.9375 -4.46875 L 5.9375 0 L 1.484375 0 L 1.484375 -13.859375 Z M 5.9375 -7.71875 L 7.78125 -7.71875 C 8.25 -7.71875 8.597656 -7.835938 8.828125 -8.078125 C 9.066406 -8.316406 9.1875 -8.644531 9.1875 -9.0625 L 9.1875 -9.21875 C 9.1875 -9.65625 9.066406 -9.988281 8.828125 -10.21875 C 8.597656 -10.457031 8.25 -10.578125 7.78125 -10.578125 L 5.9375 -10.578125 Z M 5.9375 -7.71875 "/></g></g></g><g fill="#5ce1e6" fill-opacity="0.302"><g transform="translate(111.080151, 15.958304)"><g><path d="M 7.3125 -14.09375 C 9.082031 -14.09375 10.535156 -13.734375 11.671875 -13.015625 C 12.816406 -12.296875 13.40625 -11.234375 13.4375 -9.828125 L 13.4375 -9.59375 L 9.265625 -9.59375 L 9.265625 -9.671875 C 9.265625 -10.066406 9.113281 -10.398438 8.8125 -10.671875 C 8.519531 -10.941406 8.070312 -11.078125 7.46875 -11.078125 C 6.882812 -11.078125 6.429688 -10.988281 6.109375 -10.8125 C 5.796875 -10.632812 5.640625 -10.421875 5.640625 -10.171875 C 5.640625 -9.804688 5.851562 -9.535156 6.28125 -9.359375 C 6.707031 -9.191406 7.398438 -9.015625 8.359375 -8.828125 C 9.472656 -8.597656 10.390625 -8.359375 11.109375 -8.109375 C 11.828125 -7.859375 12.453125 -7.453125 12.984375 -6.890625 C 13.523438 -6.328125 13.800781 -5.5625 13.8125 -4.59375 C 13.8125 -2.957031 13.257812 -1.742188 12.15625 -0.953125 C 11.050781 -0.160156 9.570312 0.234375 7.71875 0.234375 C 5.550781 0.234375 3.863281 -0.125 2.65625 -0.84375 C 1.457031 -1.570312 0.859375 -2.851562 0.859375 -4.6875 L 5.078125 -4.6875 C 5.078125 -3.988281 5.253906 -3.519531 5.609375 -3.28125 C 5.972656 -3.050781 6.539062 -2.9375 7.3125 -2.9375 C 7.875 -2.9375 8.335938 -2.992188 8.703125 -3.109375 C 9.078125 -3.234375 9.265625 -3.484375 9.265625 -3.859375 C 9.265625 -4.203125 9.054688 -4.457031 8.640625 -4.625 C 8.234375 -4.789062 7.566406 -4.96875 6.640625 -5.15625 C 5.515625 -5.394531 4.582031 -5.644531 3.84375 -5.90625 C 3.101562 -6.164062 2.457031 -6.597656 1.90625 -7.203125 C 1.363281 -7.804688 1.09375 -8.628906 1.09375 -9.671875 C 1.09375 -11.179688 1.675781 -12.296875 2.84375 -13.015625 C 4.019531 -13.734375 5.507812 -14.09375 7.3125 -14.09375 Z M 7.3125 -14.09375 "/></g></g></g><g fill="#5ce1e6" fill-opacity="0.302"><g transform="translate(125.616797, 15.958304)"><g><path d="M 1.484375 -13.859375 L 13.46875 -13.859375 L 13.46875 -10.53125 L 5.9375 -10.53125 L 5.9375 -8.625 L 12.390625 -8.625 L 12.390625 -5.4375 L 5.9375 -5.4375 L 5.9375 -3.328125 L 13.609375 -3.328125 L 13.609375 0 L 1.484375 0 Z M 1.484375 -13.859375 "/></g></g></g><g fill="#5ce1e6" fill-opacity="0.502"><g transform="translate(44.317818, 16.120599)"><g><path d="M 1.484375 -13.859375 L 13.46875 -13.859375 L 13.46875 -10.53125 L 5.9375 -10.53125 L 5.9375 -8.625 L 12.390625 -8.625 L 12.390625 -5.4375 L 5.9375 -5.4375 L 5.9375 -3.328125 L 13.609375 -3.328125 L 13.609375 0 L 1.484375 0 Z M 1.484375 -13.859375 "/></g></g></g><g fill="#5ce1e6" fill-opacity="0.502"><g transform="translate(58.854464, 16.120599)"><g><path d="M 8.09375 -14.09375 C 10.144531 -14.09375 11.769531 -13.578125 12.96875 -12.546875 C 14.164062 -11.523438 14.765625 -10.0625 14.765625 -8.15625 L 10.515625 -8.15625 C 10.515625 -8.957031 10.300781 -9.59375 9.875 -10.0625 C 9.457031 -10.539062 8.859375 -10.78125 8.078125 -10.78125 C 7.179688 -10.78125 6.519531 -10.492188 6.09375 -9.921875 C 5.664062 -9.359375 5.453125 -8.578125 5.453125 -7.578125 L 5.453125 -6.28125 C 5.453125 -5.289062 5.664062 -4.507812 6.09375 -3.9375 C 6.519531 -3.363281 7.164062 -3.078125 8.03125 -3.078125 C 8.894531 -3.078125 9.546875 -3.296875 9.984375 -3.734375 C 10.429688 -4.179688 10.65625 -4.8125 10.65625 -5.625 L 14.765625 -5.625 C 14.765625 -3.726562 14.179688 -2.273438 13.015625 -1.265625 C 11.859375 -0.265625 10.21875 0.234375 8.09375 0.234375 C 5.726562 0.234375 3.9375 -0.367188 2.71875 -1.578125 C 1.507812 -2.785156 0.90625 -4.566406 0.90625 -6.921875 C 0.90625 -9.285156 1.507812 -11.070312 2.71875 -12.28125 C 3.9375 -13.488281 5.726562 -14.09375 8.09375 -14.09375 Z M 8.09375 -14.09375 "/></g></g></g><g fill="#5ce1e6" fill-opacity="0.502"><g transform="translate(74.518609, 16.120599)"><g><path d="M 1.484375 -13.859375 L 5.9375 -13.859375 L 5.9375 -3.546875 L 13.046875 -3.546875 L 13.046875 0 L 1.484375 0 Z M 1.484375 -13.859375 "/></g></g></g><g fill="#5ce1e6" fill-opacity="0.502"><g transform="translate(87.947893, 16.120599)"><g><path d="M 1.6875 0 L 1.6875 -13.859375 L 6.140625 -13.859375 L 6.140625 0 Z M 1.6875 0 "/></g></g></g><g fill="#5ce1e6" fill-opacity="0.502"><g transform="translate(95.779965, 16.120599)"><g><path d="M 9.265625 -13.859375 C 10.117188 -13.859375 10.878906 -13.660156 11.546875 -13.265625 C 12.222656 -12.867188 12.75 -12.320312 13.125 -11.625 C 13.507812 -10.9375 13.703125 -10.164062 13.703125 -9.3125 L 13.703125 -9.046875 C 13.703125 -8.179688 13.507812 -7.398438 13.125 -6.703125 C 12.75 -6.003906 12.222656 -5.457031 11.546875 -5.0625 C 10.878906 -4.664062 10.117188 -4.46875 9.265625 -4.46875 L 5.9375 -4.46875 L 5.9375 0 L 1.484375 0 L 1.484375 -13.859375 Z M 5.9375 -7.71875 L 7.78125 -7.71875 C 8.25 -7.71875 8.597656 -7.835938 8.828125 -8.078125 C 9.066406 -8.316406 9.1875 -8.644531 9.1875 -9.0625 L 9.1875 -9.21875 C 9.1875 -9.65625 9.066406 -9.988281 8.828125 -10.21875 C 8.597656 -10.457031 8.25 -10.578125 7.78125 -10.578125 L 5.9375 -10.578125 Z M 5.9375 -7.71875 "/></g></g></g><g fill="#5ce1e6" fill-opacity="0.502"><g transform="translate(110.316612, 16.120599)"><g><path d="M 7.3125 -14.09375 C 9.082031 -14.09375 10.535156 -13.734375 11.671875 -13.015625 C 12.816406 -12.296875 13.40625 -11.234375 13.4375 -9.828125 L 13.4375 -9.59375 L 9.265625 -9.59375 L 9.265625 -9.671875 C 9.265625 -10.066406 9.113281 -10.398438 8.8125 -10.671875 C 8.519531 -10.941406 8.070312 -11.078125 7.46875 -11.078125 C 6.882812 -11.078125 6.429688 -10.988281 6.109375 -10.8125 C 5.796875 -10.632812 5.640625 -10.421875 5.640625 -10.171875 C 5.640625 -9.804688 5.851562 -9.535156 6.28125 -9.359375 C 6.707031 -9.191406 7.398438 -9.015625 8.359375 -8.828125 C 9.472656 -8.597656 10.390625 -8.359375 11.109375 -8.109375 C 11.828125 -7.859375 12.453125 -7.453125 12.984375 -6.890625 C 13.523438 -6.328125 13.800781 -5.5625 13.8125 -4.59375 C 13.8125 -2.957031 13.257812 -1.742188 12.15625 -0.953125 C 11.050781 -0.160156 9.570312 0.234375 7.71875 0.234375 C 5.550781 0.234375 3.863281 -0.125 2.65625 -0.84375 C 1.457031 -1.570312 0.859375 -2.851562 0.859375 -4.6875 L 5.078125 -4.6875 C 5.078125 -3.988281 5.253906 -3.519531 5.609375 -3.28125 C 5.972656 -3.050781 6.539062 -2.9375 7.3125 -2.9375 C 7.875 -2.9375 8.335938 -2.992188 8.703125 -3.109375 C 9.078125 -3.234375 9.265625 -3.484375 9.265625 -3.859375 C 9.265625 -4.203125 9.054688 -4.457031 8.640625 -4.625 C 8.234375 -4.789062 7.566406 -4.96875 6.640625 -5.15625 C 5.515625 -5.394531 4.582031 -5.644531 3.84375 -5.90625 C 3.101562 -6.164062 2.457031 -6.597656 1.90625 -7.203125 C 1.363281 -7.804688 1.09375 -8.628906 1.09375 -9.671875 C 1.09375 -11.179688 1.675781 -12.296875 2.84375 -13.015625 C 4.019531 -13.734375 5.507812 -14.09375 7.3125 -14.09375 Z M 7.3125 -14.09375 "/></g></g></g><g fill="#5ce1e6" fill-opacity="0.502"><g transform="translate(124.853258, 16.120599)"><g><path d="M 1.484375 -13.859375 L 13.46875 -13.859375 L 13.46875 -10.53125 L 5.9375 -10.53125 L 5.9375 -8.625 L 12.390625 -8.625 L 12.390625 -5.4375 L 5.9375 -5.4375 L 5.9375 -3.328125 L 13.609375 -3.328125 L 13.609375 0 L 1.484375 0 Z M 1.484375 -13.859375 "/></g></g></g><g fill="#00c2cb" fill-opacity="1"><g transform="translate(43.554283, 16.282893)"><g><path d="M 1.484375 -13.859375 L 13.46875 -13.859375 L 13.46875 -10.53125 L 5.9375 -10.53125 L 5.9375 -8.625 L 12.390625 -8.625 L 12.390625 -5.4375 L 5.9375 -5.4375 L 5.9375 -3.328125 L 13.609375 -3.328125 L 13.609375 0 L 1.484375 0 Z M 1.484375 -13.859375 "/></g></g></g><g fill="#00c2cb" fill-opacity="1"><g transform="translate(58.090929, 16.282893)"><g><path d="M 8.09375 -14.09375 C 10.144531 -14.09375 11.769531 -13.578125 12.96875 -12.546875 C 14.164062 -11.523438 14.765625 -10.0625 14.765625 -8.15625 L 10.515625 -8.15625 C 10.515625 -8.957031 10.300781 -9.59375 9.875 -10.0625 C 9.457031 -10.539062 8.859375 -10.78125 8.078125 -10.78125 C 7.179688 -10.78125 6.519531 -10.492188 6.09375 -9.921875 C 5.664062 -9.359375 5.453125 -8.578125 5.453125 -7.578125 L 5.453125 -6.28125 C 5.453125 -5.289062 5.664062 -4.507812 6.09375 -3.9375 C 6.519531 -3.363281 7.164062 -3.078125 8.03125 -3.078125 C 8.894531 -3.078125 9.546875 -3.296875 9.984375 -3.734375 C 10.429688 -4.179688 10.65625 -4.8125 10.65625 -5.625 L 14.765625 -5.625 C 14.765625 -3.726562 14.179688 -2.273438 13.015625 -1.265625 C 11.859375 -0.265625 10.21875 0.234375 8.09375 0.234375 C 5.726562 0.234375 3.9375 -0.367188 2.71875 -1.578125 C 1.507812 -2.785156 0.90625 -4.566406 0.90625 -6.921875 C 0.90625 -9.285156 1.507812 -11.070312 2.71875 -12.28125 C 3.9375 -13.488281 5.726562 -14.09375 8.09375 -14.09375 Z M 8.09375 -14.09375 "/></g></g></g><g fill="#00c2cb" fill-opacity="1"><g transform="translate(73.755074, 16.282893)"><g><path d="M 1.484375 -13.859375 L 5.9375 -13.859375 L 5.9375 -3.546875 L 13.046875 -3.546875 L 13.046875 0 L 1.484375 0 Z M 1.484375 -13.859375 "/></g></g></g><g fill="#00c2cb" fill-opacity="1"><g transform="translate(87.184358, 16.282893)"><g><path d="M 1.6875 0 L 1.6875 -13.859375 L 6.140625 -13.859375 L 6.140625 0 Z M 1.6875 0 "/></g></g></g><g fill="#00c2cb" fill-opacity="1"><g transform="translate(95.01643, 16.282893)"><g><path d="M 9.265625 -13.859375 C 10.117188 -13.859375 10.878906 -13.660156 11.546875 -13.265625 C 12.222656 -12.867188 12.75 -12.320312 13.125 -11.625 C 13.507812 -10.9375 13.703125 -10.164062 13.703125 -9.3125 L 13.703125 -9.046875 C 13.703125 -8.179688 13.507812 -7.398438 13.125 -6.703125 C 12.75 -6.003906 12.222656 -5.457031 11.546875 -5.0625 C 10.878906 -4.664062 10.117188 -4.46875 9.265625 -4.46875 L 5.9375 -4.46875 L 5.9375 0 L 1.484375 0 L 1.484375 -13.859375 Z M 5.9375 -7.71875 L 7.78125 -7.71875 C 8.25 -7.71875 8.597656 -7.835938 8.828125 -8.078125 C 9.066406 -8.316406 9.1875 -8.644531 9.1875 -9.0625 L 9.1875 -9.21875 C 9.1875 -9.65625 9.066406 -9.988281 8.828125 -10.21875 C 8.597656 -10.457031 8.25 -10.578125 7.78125 -10.578125 L 5.9375 -10.578125 Z M 5.9375 -7.71875 "/></g></g></g><g fill="#00c2cb" fill-opacity="1"><g transform="translate(109.553076, 16.282893)"><g><path d="M 7.3125 -14.09375 C 9.082031 -14.09375 10.535156 -13.734375 11.671875 -13.015625 C 12.816406 -12.296875 13.40625 -11.234375 13.4375 -9.828125 L 13.4375 -9.59375 L 9.265625 -9.59375 L 9.265625 -9.671875 C 9.265625 -10.066406 9.113281 -10.398438 8.8125 -10.671875 C 8.519531 -10.941406 8.070312 -11.078125 7.46875 -11.078125 C 6.882812 -11.078125 6.429688 -10.988281 6.109375 -10.8125 C 5.796875 -10.632812 5.640625 -10.421875 5.640625 -10.171875 C 5.640625 -9.804688 5.851562 -9.535156 6.28125 -9.359375 C 6.707031 -9.191406 7.398438 -9.015625 8.359375 -8.828125 C 9.472656 -8.597656 10.390625 -8.359375 11.109375 -8.109375 C 11.828125 -7.859375 12.453125 -7.453125 12.984375 -6.890625 C 13.523438 -6.328125 13.800781 -5.5625 13.8125 -4.59375 C 13.8125 -2.957031 13.257812 -1.742188 12.15625 -0.953125 C 11.050781 -0.160156 9.570312 0.234375 7.71875 0.234375 C 5.550781 0.234375 3.863281 -0.125 2.65625 -0.84375 C 1.457031 -1.570312 0.859375 -2.851562 0.859375 -4.6875 L 5.078125 -4.6875 C 5.078125 -3.988281 5.253906 -3.519531 5.609375 -3.28125 C 5.972656 -3.050781 6.539062 -2.9375 7.3125 -2.9375 C 7.875 -2.9375 8.335938 -2.992188 8.703125 -3.109375 C 9.078125 -3.234375 9.265625 -3.484375 9.265625 -3.859375 C 9.265625 -4.203125 9.054688 -4.457031 8.640625 -4.625 C 8.234375 -4.789062 7.566406 -4.96875 6.640625 -5.15625 C 5.515625 -5.394531 4.582031 -5.644531 3.84375 -5.90625 C 3.101562 -6.164062 2.457031 -6.597656 1.90625 -7.203125 C 1.363281 -7.804688 1.09375 -8.628906 1.09375 -9.671875 C 1.09375 -11.179688 1.675781 -12.296875 2.84375 -13.015625 C 4.019531 -13.734375 5.507812 -14.09375 7.3125 -14.09375 Z M 7.3125 -14.09375 "/></g></g></g><g fill="#00c2cb" fill-opacity="1"><g transform="translate(124.089722, 16.282893)"><g><path d="M 1.484375 -13.859375 L 13.46875 -13.859375 L 13.46875 -10.53125 L 5.9375 -10.53125 L 5.9375 -8.625 L 12.390625 -8.625 L 12.390625 -5.4375 L 5.9375 -5.4375 L 5.9375 -3.328125 L 13.609375 -3.328125 L 13.609375 0 L 1.484375 0 Z M 1.484375 -13.859375 "/></g></g></g><g fill="#5ce1e6" fill-opacity="0.302"><g transform="translate(56.264282, 33.721461)"><g><path d="M 8.09375 -14.09375 C 10.144531 -14.09375 11.769531 -13.578125 12.96875 -12.546875 C 14.164062 -11.523438 14.765625 -10.0625 14.765625 -8.15625 L 10.515625 -8.15625 C 10.515625 -8.957031 10.300781 -9.59375 9.875 -10.0625 C 9.457031 -10.539062 8.859375 -10.78125 8.078125 -10.78125 C 7.179688 -10.78125 6.519531 -10.492188 6.09375 -9.921875 C 5.664062 -9.359375 5.453125 -8.578125 5.453125 -7.578125 L 5.453125 -6.28125 C 5.453125 -5.289062 5.664062 -4.507812 6.09375 -3.9375 C 6.519531 -3.363281 7.164062 -3.078125 8.03125 -3.078125 C 8.894531 -3.078125 9.546875 -3.296875 9.984375 -3.734375 C 10.429688 -4.179688 10.65625 -4.8125 10.65625 -5.625 L 14.765625 -5.625 C 14.765625 -3.726562 14.179688 -2.273438 13.015625 -1.265625 C 11.859375 -0.265625 10.21875 0.234375 8.09375 0.234375 C 5.726562 0.234375 3.9375 -0.367188 2.71875 -1.578125 C 1.507812 -2.785156 0.90625 -4.566406 0.90625 -6.921875 C 0.90625 -9.285156 1.507812 -11.070312 2.71875 -12.28125 C 3.9375 -13.488281 5.726562 -14.09375 8.09375 -14.09375 Z M 8.09375 -14.09375 "/></g></g></g><g fill="#5ce1e6" fill-opacity="0.302"><g transform="translate(71.928427, 33.721461)"><g><path d="M 10.828125 0 L 10.828125 -5.25 L 5.9375 -5.25 L 5.9375 0 L 1.484375 0 L 1.484375 -13.859375 L 5.9375 -13.859375 L 5.9375 -8.796875 L 10.828125 -8.796875 L 10.828125 -13.859375 L 15.28125 -13.859375 L 15.28125 0 Z M 10.828125 0 "/></g></g></g><g fill="#5ce1e6" fill-opacity="0.302"><g transform="translate(88.699935, 33.721461)"><g><path d="M 10.78125 0 L 10.1875 -1.953125 L 5.34375 -1.953125 L 4.75 0 L 0.203125 0 L 5.25 -13.859375 L 10.4375 -13.859375 L 15.484375 0 Z M 6.265625 -5.0625 L 9.265625 -5.0625 L 7.8125 -9.984375 L 7.734375 -9.984375 Z M 6.265625 -5.0625 "/></g></g></g><g fill="#5ce1e6" fill-opacity="0.302"><g transform="translate(104.36408, 33.721461)"><g><path d="M 1.6875 0 L 1.6875 -13.859375 L 6.140625 -13.859375 L 6.140625 0 Z M 1.6875 0 "/></g></g></g><g fill="#5ce1e6" fill-opacity="0.302"><g transform="translate(112.196153, 33.721461)"><g><path d="M 11.40625 0 L 5.578125 -6.734375 L 5.578125 0 L 1.484375 0 L 1.484375 -13.859375 L 5.375 -13.859375 L 11.203125 -7.03125 L 11.203125 -13.859375 L 15.28125 -13.859375 L 15.28125 0 Z M 11.40625 0 "/></g></g></g><g fill="#5ce1e6" fill-opacity="0.502"><g transform="translate(55.500743, 33.883756)"><g><path d="M 8.09375 -14.09375 C 10.144531 -14.09375 11.769531 -13.578125 12.96875 -12.546875 C 14.164062 -11.523438 14.765625 -10.0625 14.765625 -8.15625 L 10.515625 -8.15625 C 10.515625 -8.957031 10.300781 -9.59375 9.875 -10.0625 C 9.457031 -10.539062 8.859375 -10.78125 8.078125 -10.78125 C 7.179688 -10.78125 6.519531 -10.492188 6.09375 -9.921875 C 5.664062 -9.359375 5.453125 -8.578125 5.453125 -7.578125 L 5.453125 -6.28125 C 5.453125 -5.289062 5.664062 -4.507812 6.09375 -3.9375 C 6.519531 -3.363281 7.164062 -3.078125 8.03125 -3.078125 C 8.894531 -3.078125 9.546875 -3.296875 9.984375 -3.734375 C 10.429688 -4.179688 10.65625 -4.8125 10.65625 -5.625 L 14.765625 -5.625 C 14.765625 -3.726562 14.179688 -2.273438 13.015625 -1.265625 C 11.859375 -0.265625 10.21875 0.234375 8.09375 0.234375 C 5.726562 0.234375 3.9375 -0.367188 2.71875 -1.578125 C 1.507812 -2.785156 0.90625 -4.566406 0.90625 -6.921875 C 0.90625 -9.285156 1.507812 -11.070312 2.71875 -12.28125 C 3.9375 -13.488281 5.726562 -14.09375 8.09375 -14.09375 Z M 8.09375 -14.09375 "/></g></g></g><g fill="#5ce1e6" fill-opacity="0.502"><g transform="translate(71.164888, 33.883756)"><g><path d="M 10.828125 0 L 10.828125 -5.25 L 5.9375 -5.25 L 5.9375 0 L 1.484375 0 L 1.484375 -13.859375 L 5.9375 -13.859375 L 5.9375 -8.796875 L 10.828125 -8.796875 L 10.828125 -13.859375 L 15.28125 -13.859375 L 15.28125 0 Z M 10.828125 0 "/></g></g></g><g fill="#5ce1e6" fill-opacity="0.502"><g transform="translate(87.936396, 33.883756)"><g><path d="M 10.78125 0 L 10.1875 -1.953125 L 5.34375 -1.953125 L 4.75 0 L 0.203125 0 L 5.25 -13.859375 L 10.4375 -13.859375 L 15.484375 0 Z M 6.265625 -5.0625 L 9.265625 -5.0625 L 7.8125 -9.984375 L 7.734375 -9.984375 Z M 6.265625 -5.0625 "/></g></g></g><g fill="#5ce1e6" fill-opacity="0.502"><g transform="translate(103.600541, 33.883756)"><g><path d="M 1.6875 0 L 1.6875 -13.859375 L 6.140625 -13.859375 L 6.140625 0 Z M 1.6875 0 "/></g></g></g><g fill="#5ce1e6" fill-opacity="0.502"><g transform="translate(111.432614, 33.883756)"><g><path d="M 11.40625 0 L 5.578125 -6.734375 L 5.578125 0 L 1.484375 0 L 1.484375 -13.859375 L 5.375 -13.859375 L 11.203125 -7.03125 L 11.203125 -13.859375 L 15.28125 -13.859375 L 15.28125 0 Z M 11.40625 0 "/></g></g></g><g fill="#00c2cb" fill-opacity="1"><g transform="translate(54.737208, 34.046051)"><g><path d="M 8.09375 -14.09375 C 10.144531 -14.09375 11.769531 -13.578125 12.96875 -12.546875 C 14.164062 -11.523438 14.765625 -10.0625 14.765625 -8.15625 L 10.515625 -8.15625 C 10.515625 -8.957031 10.300781 -9.59375 9.875 -10.0625 C 9.457031 -10.539062 8.859375 -10.78125 8.078125 -10.78125 C 7.179688 -10.78125 6.519531 -10.492188 6.09375 -9.921875 C 5.664062 -9.359375 5.453125 -8.578125 5.453125 -7.578125 L 5.453125 -6.28125 C 5.453125 -5.289062 5.664062 -4.507812 6.09375 -3.9375 C 6.519531 -3.363281 7.164062 -3.078125 8.03125 -3.078125 C 8.894531 -3.078125 9.546875 -3.296875 9.984375 -3.734375 C 10.429688 -4.179688 10.65625 -4.8125 10.65625 -5.625 L 14.765625 -5.625 C 14.765625 -3.726562 14.179688 -2.273438 13.015625 -1.265625 C 11.859375 -0.265625 10.21875 0.234375 8.09375 0.234375 C 5.726562 0.234375 3.9375 -0.367188 2.71875 -1.578125 C 1.507812 -2.785156 0.90625 -4.566406 0.90625 -6.921875 C 0.90625 -9.285156 1.507812 -11.070312 2.71875 -12.28125 C 3.9375 -13.488281 5.726562 -14.09375 8.09375 -14.09375 Z M 8.09375 -14.09375 "/></g></g></g><g fill="#00c2cb" fill-opacity="1"><g transform="translate(70.401353, 34.046051)"><g><path d="M 10.828125 0 L 10.828125 -5.25 L 5.9375 -5.25 L 5.9375 0 L 1.484375 0 L 1.484375 -13.859375 L 5.9375 -13.859375 L 5.9375 -8.796875 L 10.828125 -8.796875 L 10.828125 -13.859375 L 15.28125 -13.859375 L 15.28125 0 Z M 10.828125 0 "/></g></g></g><g fill="#00c2cb" fill-opacity="1"><g transform="translate(87.172861, 34.046051)"><g><path d="M 10.78125 0 L 10.1875 -1.953125 L 5.34375 -1.953125 L 4.75 0 L 0.203125 0 L 5.25 -13.859375 L 10.4375 -13.859375 L 15.484375 0 Z M 6.265625 -5.0625 L 9.265625 -5.0625 L 7.8125 -9.984375 L 7.734375 -9.984375 Z M 6.265625 -5.0625 "/></g></g></g><g fill="#00c2cb" fill-opacity="1"><g transform="translate(102.837006, 34.046051)"><g><path d="M 1.6875 0 L 1.6875 -13.859375 L 6.140625 -13.859375 L 6.140625 0 Z M 1.6875 0 "/></g></g></g><g fill="#00c2cb" fill-opacity="1"><g transform="translate(110.669078, 34.046051)"><g><path d="M 11.40625 0 L 5.578125 -6.734375 L 5.578125 0 L 1.484375 0 L 1.484375 -13.859375 L 5.375 -13.859375 L 11.203125 -7.03125 L 11.203125 -13.859375 L 15.28125 -13.859375 L 15.28125 0 Z M 11.40625 0 "/></g></g></g></svg>